<svg xmlns="http://www.w3.org/2000/svg" width="150.105" height="91.823" viewBox="0 0 150.105 91.823">
  <g id="Unified_logo_flat" data-name="Unified logo flat" transform="translate(-46.98 -43.02)">
    <path id="Path_1" data-name="Path 1" d="M194.389,267.78l-.249.353h-.018v-.427h1.166v.427h-.014l-.251-.357h-.189v1.037l.142.207h-.538l.14-.207V267.78m1.6,1.258-.494-.985v.776l.154.189h-.393l.146-.189v-.921l-.163-.2h.381l.457.955.415-.955h.4l-.142.156v.951l.144.207h-.554l.158-.207V267.9l-.5,1.142h-.016v0ZM46.984,256.061a8.49,8.49,0,0,0,.343.941,8.152,8.152,0,0,0,2.5,2.8,19.033,19.033,0,0,0,3.752,2.066.56.56,0,0,1,.391.59q-.015,5.712-.008,11.422a1.314,1.314,0,0,1-.518,1.075c-.477.4-.943.825-1.406,1.248a.943.943,0,0,0-.154.271c.094.042.191.09.289.126a.373.373,0,0,0,.126.008c.786.03,1.575.048,2.361.09.692.036,1.39.06,2.076.16.869.13,1.727.337,2.59.5a1.543,1.543,0,0,0,.359-.014,1.422,1.422,0,0,0-.152-.325c-.289-.353-.582-.706-.895-1.041a1.707,1.707,0,0,1-.461-1.248q.009-6.208,0-12.415c0-.092,0-.185.008-.279a.279.279,0,0,1,.255-.295,3.594,3.594,0,0,0,.586-.167,15.727,15.727,0,0,0,4.117-2.225,12.342,12.342,0,0,1,1.029-.7c.195-.12.3-.048.315.179.01.179.016.357.014.534,0,4.849,0,9.7-.022,14.549a11.261,11.261,0,0,1-.261,2.213,4.835,4.835,0,0,1-1.144,2.484c-.245.255-.55.447-.819.68a1.769,1.769,0,0,0-.393.419c-.14.243-.022.431.261.457a3.648,3.648,0,0,0,.534.006c.861-.05,1.723-.144,2.586-.152,1.075-.008,2.153.016,3.222.11a13.027,13.027,0,0,1,1.749.417,2.267,2.267,0,0,0,.676.062.434.434,0,0,0,.321-.229.476.476,0,0,0-.114-.377,6.018,6.018,0,0,0-.59-.562,4.73,4.73,0,0,1-1.144-1.378,6.417,6.417,0,0,1-.6-2.983q0-9.233,0-18.468c0-.423.022-.847.05-1.27.04-.626.233-.867.843-1,1.595-.355,3.194-.694,4.791-1.037.233-.05.471-.08.706-.118.018.028.036.058.054.088a1.624,1.624,0,0,1-.191.259c-.361.331-.72.668-1.1.977a2.888,2.888,0,0,0-1.045,2.975c.281,1.533.576,3.062.9,4.582.239,1.117.524,2.225.8,3.33a1.435,1.435,0,0,0,1.621,1.218,2.841,2.841,0,0,0,.969-.341c.524-.279,1.017-.61,1.525-.913a2.827,2.827,0,0,1,.431-.207.3.3,0,0,1,.427.229c.066.243.122.492.2.732a.82.82,0,0,0,.831.62,1.44,1.44,0,0,0,1.043-.321,12.76,12.76,0,0,0,1.019-.985c.461-.486.9-.993,1.362-1.473.363-.379.756-.728,1.13-1.1a.731.731,0,0,0,.1-.237,1.245,1.245,0,0,0-.231-.066c-.136-.012-.271,0-.407-.006-.479-.008-.736-.159-.819-.63a10.077,10.077,0,0,1-.14-1.611q-.072-3.494-.106-6.99c-.016-1.577-.04-3.154-.01-4.731a4.864,4.864,0,0,0-1.434-3.675c-.423-.429-.815-.887-1.216-1.334-.524-.59-1.041-1.184-1.563-1.776a.767.767,0,0,0-1.075-.245,2.009,2.009,0,0,0-.231.108c-.979.536-1.97,1.055-2.935,1.617a11,11,0,0,0-1.491,1.011,1.751,1.751,0,0,0-.622,2.006,13.474,13.474,0,0,0,1.79,3.232.356.356,0,0,0,.315.13.42.42,0,0,0,.2-.307,6.222,6.222,0,0,0-.012-.967,1.292,1.292,0,0,1,.5-1.21c.71-.564,1.42-1.128,2.135-1.683a2.245,2.245,0,0,1,.455-.277.537.537,0,0,1,.786.273,1.13,1.13,0,0,1,.122.333,11.07,11.07,0,0,1,.187,1.328q.172,4.075.309,8.151c.046,1.328.092,2.658.108,3.986.012,1.059.01,2.121-.046,3.176-.046.893-.632,1.3-1.477,1.449a.466.466,0,0,1-.6-.335,2.324,2.324,0,0,1-.156-.457c-.217-1.051-.437-2.1-.638-3.156a40.31,40.31,0,0,1-.772-4.5,1.136,1.136,0,0,1,.429-1.073c.706-.566,1.4-1.148,2.095-1.735.094-.08.195-.281.154-.357a.577.577,0,0,0-.361-.251,3.986,3.986,0,0,0-.71-.028q-3.256-.024-6.5.279c-.756.07-1.509.183-2.263.3-.371.06-.4.066-.4-.313.006-1.493.014-2.985.016-4.478q.012-4.96.02-9.919a.935.935,0,0,1,.253-.664q.719-.825,1.416-1.667a1.225,1.225,0,0,0,.138-.331c-.1-.018-.207-.04-.311-.05a1.068,1.068,0,0,0-.227.008c-.744.068-1.483.169-2.227.2-1.5.058-3,.074-4.5.114-.1,0-.263.044-.3.114s.026.219.07.321a.814.814,0,0,0,.154.2c.341.377.678.756,1.023,1.13a.761.761,0,0,1,.207.55q-.006,8.562,0,17.122a.668.668,0,0,1-.263.566c-.813.668-1.617,1.346-2.426,2.016a11.8,11.8,0,0,1-2.957,1.908c-.488.2-.518.183-.518-.353q0-9.489,0-18.977a1.148,1.148,0,0,1,.293-.788c.233-.269.469-.536.686-.819a2.2,2.2,0,0,0,.2-.407,2.022,2.022,0,0,0-.429-.09c-1.814-.008-3.629,0-5.445-.008-.3,0-.608-.022-.911-.014a.832.832,0,0,0-.259.112.85.85,0,0,0,.124.257c.3.3.61.588.931.867a1.594,1.594,0,0,1,.586,1.27c0,.179.008.357.008.532q-.012,6.452-.02,12.9-.006,2.787-.02,5.571c0,.05-.006.1,0,.152.01.241-.092.325-.327.247-.12-.04-.247-.06-.367-.1a12.6,12.6,0,0,1-4.582-3.118.375.375,0,0,1-.04-.512,1.172,1.172,0,0,1,.269-.3c.554-.429,1.115-.853,1.673-1.28.08-.062.148-.136.223-.2q-.015-.036-.03-.078c-.173,0-.347-.014-.518,0a9.153,9.153,0,0,0-2.213.542,1.453,1.453,0,0,0-1.023.967v.261h0ZM134.8,230.01q2.043,3.033,4.085,6.069a1.913,1.913,0,0,1,.321,1.055c.022,1.814.094,3.631.036,5.441-.05,1.479-.257,2.951-.4,4.424-.05.5-.132.991-.175,1.491-.032.361-.008.4.345.455.484.082.973.124,1.461.2a5.2,5.2,0,0,1,.819.169c.2.06.261,0,.293-.183.056-.343.126-.68.181-1.025a.781.781,0,0,1,.369-.58c.8-.508,1.595-1.021,2.408-1.513,1.029-.622,2.07-1.22,3.106-1.832a.885.885,0,0,1,1.252.152c.72.726,1.461,1.443,2.161,2.191.419.451.794.947,1.172,1.436a1.882,1.882,0,0,1,.325,1.105c.08,1.759.181,3.519.241,5.278.046,1.3.052,2.594.062,3.89.014,1.788,0,3.577.028,5.369a1.409,1.409,0,0,1-.636,1.26,17.59,17.59,0,0,1-5.256,2.6.724.724,0,0,1-.794-.175c-.991-1-2.006-1.972-2.979-2.989a13.235,13.235,0,0,1-1.286-1.6,1.759,1.759,0,0,1-.295-.847c-.285-3.381-.3-6.769-.265-10.162.008-.726-.072-.819-.817-.919s-1.457-.211-2.189-.3a.423.423,0,0,0-.3.138c-.215.239-.4.508-.606.75a3.558,3.558,0,0,1-1.6,1.085c-.829.263-1.665.5-2.5.736a.593.593,0,0,1-.712-.307q-.906-1.487-1.814-2.971a1.027,1.027,0,0,0-.263-.287q-.072,7.081.361,14.134l-.1.018a2.5,2.5,0,0,1-.126-.281c-.243-.694-.473-1.392-.732-2.082a5.235,5.235,0,0,0-.415-.811c-.038-.068-.142-.1-.217-.146-.042.078-.116.152-.124.233-.032.405-.066.811-.064,1.216.014,2.135.04,4.271.066,6.406.008.6.026,1.2.038,1.8,0,.084,0,.167,0,.249l-.066.038a1.234,1.234,0,0,1-.185-.185c-.215-.325-.409-.662-.636-.979a2.114,2.114,0,0,0-.433-.423c-.177-.138-.3-.1-.357.114a4.649,4.649,0,0,0-.144.877c-.054,1.107-.092,2.217-.126,3.326q-.1,3.088-.181,6.171-.063,2.224-.126,4.446a2.414,2.414,0,0,1-.084.584q-1.454-15.468-2.745-30.951c.558.429.819,1.111,1.489,1.523a6.483,6.483,0,0,0-.036-.712q-.623-3.6-1.268-7.2c-.084-.473-.187-.945-.275-1.42a2.3,2.3,0,0,1-.02-.287c.024-.016.05-.03.074-.044.138.124.277.253.419.371a5.616,5.616,0,0,0,.588.484c.225.142.4.064.4-.2a15.4,15.4,0,0,0-.024-1.826c-.138-1.477-.317-2.949-.481-4.422q-.271-2.423-.54-4.849c-.052-.479-.112-.959-.152-1.438a1.169,1.169,0,0,0-.467-.839c-.5-.409-.987-.825-1.479-1.246-.118-.1-.219-.225-.373-.385a2.722,2.722,0,0,1,.365-.086c1.047-.072,2.095-.14,3.144-.211,1.495-.094,2.991-.193,4.488-.287,1.244-.076,2.486-.144,3.728-.221a2.4,2.4,0,0,0,.291-.054h.754v0Zm14.744,30.768h-.022c0-.807.03-1.611-.006-2.414-.092-2.091-.209-4.177-.323-6.268-.028-.506-.094-1.011-.144-1.517-.048-.488-.195-.6-.682-.516-.459.08-.917.165-1.376.243-.59.1-1.186.2-1.774.311-.445.082-.576.239-.586.69,0,.179.016.355.018.532q.054,3.136.1,6.278c.022,1.406.036,2.813.05,4.217a1.769,1.769,0,0,0,.425,1.246q.581.623,1.174,1.232a.5.5,0,0,0,.706.12c.586-.289,1.156-.608,1.745-.881a1.135,1.135,0,0,0,.688-1.14c0-.71,0-1.422,0-2.135m-19.7-16.618h.112v2.847c0,.465.016.455.479.4,1.057-.12,2.119-.227,3.182-.309.532-.04.692-.179.67-.72-.026-.662-.058-1.32-.08-1.98q-.129-3.81-.255-7.62c-.034-1.005-.06-2.012-.1-3.021-.02-.488-.06-.514-.562-.534-1.033-.042-2.066-.08-3.1-.122-.415-.018-.439,0-.431.407.028,1.948.068,3.9.086,5.846.01,1.6,0,3.2,0,4.805m15.011,4.486c.032.225.052.453.1.676a.251.251,0,0,0,.385.195,1.621,1.621,0,0,0,.269-.138,5.274,5.274,0,0,0,2.187-2.929.763.763,0,0,0-.016-.259.668.668,0,0,0-.253.046c-.772.55-1.539,1.105-2.307,1.665a.808.808,0,0,0-.365.744m-12.7.191c-.261,0-.353.118-.247.277.325.492.662.979,1.013,1.455a.271.271,0,0,0,.459,0c.245-.291.48-.59.7-.9a.246.246,0,0,0-.14-.419c-.614-.154-1.232-.283-1.782-.407m-24.707-.389c-.576.036-1.15.076-1.723.124a.918.918,0,0,0-.263.116,2.222,2.222,0,0,0,.132.279.845.845,0,0,0,.179.181,1.725,1.725,0,0,1,.576,1.045q.445,2.152.907,4.3.776,3.638,1.557,7.275a1.537,1.537,0,0,1-.159,1.081q-2.447,4.511-4.893,9.016a.914.914,0,0,1-.975.528c-1.156-.108-2.309-.207-3.465-.319-1.5-.142-3-.295-4.5-.441-1-.1-1.99-.183-2.983-.293a.5.5,0,0,1-.455-.758c.237-.616.51-1.216.772-1.824a1.092,1.092,0,0,1,.6-.554c.8-.359,1.6-.732,2.4-1.111a1.328,1.328,0,0,0,.283-.253,1.256,1.256,0,0,0-.369-.15c-1.071-.05-2.149-.092-3.222-.126a1.221,1.221,0,0,0-.851.285c-.467.4-.935.809-1.39,1.232a1.8,1.8,0,0,0-.387.494q-.614,1.2-1.188,2.416c-.183.387-.134.556.239.786.389.241.792.459,1.2.664a15.545,15.545,0,0,0,4.729,1.471c1.162.179,2.321.387,3.489.532,1.126.138,2.259.217,3.391.319,1.264.11,2.534.187,3.794.341a1.108,1.108,0,0,0,1.232-.684c.881-1.583,1.786-3.152,2.686-4.727,1.6-2.8,3.276-5.559,4.667-8.472,1.322-2.773,2.584-5.573,3.84-8.374.853-1.9,1.651-3.822,2.466-5.736.152-.357.078-.484-.313-.518-.634-.054-1.268-.082-1.9-.12-1.025-.06-2.046-.122-3.07-.177a.643.643,0,0,0-.219.074.671.671,0,0,0,.114.183c.241.213.488.419.736.624a.689.689,0,0,1,.241.75c-.032.124-.064.247-.1.369-1.083,3.487-2.51,6.841-3.9,10.212a1.377,1.377,0,0,1-.179.307c-.106.138-.225.13-.279-.042a4.5,4.5,0,0,1-.152-.614q-.551-3.1-1.091-6.2c-.124-.708-.245-1.418-.373-2.127a.819.819,0,0,1,.375-.941,2,2,0,0,0,.365-.313.536.536,0,0,0,.08-.171.675.675,0,0,0-.177-.066,3.031,3.031,0,0,0-.331,0c-.712.038-1.422.072-2.135.116m61.49-11.171c-.1.152-.207.3-.3.455-.568.9-1.079,1.848-1.713,2.7-.911,1.222-1.91,2.375-2.877,3.557-.353.431-.728.849-1.079,1.282-.142.177-.094.265.128.3a1.283,1.283,0,0,0,.177.014c.526.012,1.051.02,1.577.036.327.01.435.108.49.429a2.246,2.246,0,0,1,.028.327q.054,2.582.1,5.16c.038,2.141.068,4.287.1,6.428q.027,1.715.05,3.431.03,2.188.052,4.372c.008.891.022,1.782.012,2.67a1.072,1.072,0,0,0,.648,1.067c1.84.957,3.661,1.948,5.489,2.925.477.255.959.5,1.449.736a.548.548,0,0,0,.764-.179,3.622,3.622,0,0,0,.263-.343c.484-.724.969-1.449,1.445-2.181a2.692,2.692,0,0,1,.963-.919,1.894,1.894,0,0,0,.343-.329,2.164,2.164,0,0,0-.465-.126c-1.344-.072-2.688-.134-4.033-.195-.331-.014-.662-.022-.993-.01-.082,0-.163.092-.245.138.058.082.1.2.179.243a1.2,1.2,0,0,0,.387.114c.843.138,1.689.265,2.532.407.457.078.524.263.237.632-.261.333-.534.658-.8.983-.3.371-.492.419-.921.195-.861-.457-1.709-.935-2.572-1.388a.939.939,0,0,1-.548-.913c-.016-1.17-.066-2.337-.084-3.5-.04-2.686-.066-5.373-.1-8.057-.028-1.958-.068-3.912-.1-5.87q-.039-2.708-.066-5.415a2.183,2.183,0,0,1,.048-.375.347.347,0,0,1,.317-.313c.253-.032.5-.064.756-.088.522-.048,1.045-.088,1.569-.134a.363.363,0,0,0,.367-.421c-.006-.187,0-.373,0-.56-.01-.415-.13-.546-.548-.562-.568-.022-1.134-.02-1.7-.036-.2-.006-.405-.03-.606-.056a.324.324,0,0,1-.3-.323c-.032-.345-.072-.692-.084-1.037-.06-1.669-.11-3.336-.169-5a1.284,1.284,0,0,0-.06-.253c-.034,0-.064-.01-.094-.016m-9.209-2.3c-.08.118-.146.243-.237.353a14.853,14.853,0,0,1-1.087,1.308c-1.493,1.465-3.009,2.907-4.524,4.35-.447.427-.923.825-1.378,1.244a.892.892,0,0,0-.124.229.835.835,0,0,0,.221.1,4.211,4.211,0,0,0,.48.044c.813.036,1.625.066,2.438.108a.436.436,0,0,1,.473.429,1.633,1.633,0,0,1,.024.327q.012,4.719.02,9.435.012,5.276.022,10.553c0,1.111.012,2.221.008,3.33a1.074,1.074,0,0,0,.508.979c1.41.955,2.8,1.934,4.2,2.9a2.989,2.989,0,0,0,.584.355.507.507,0,0,0,.439-.048c.148-.13.006-.291-.092-.419a1.474,1.474,0,0,0-.122-.128c-.616-.62-1.228-1.244-1.848-1.858a.83.83,0,0,1-.269-.656c.036-1.455.062-2.911.094-4.368.032-1.543.062-3.082.1-4.626.046-1.741.1-3.487.15-5.23q.105-3.771.207-7.546c.028-1.015.072-2.03.094-3.046.01-.473.261-.558.636-.57.508-.014,1.015-.036,1.523-.062a.334.334,0,0,0,.357-.373c0-.321,0-.644-.018-.965-.026-.475-.163-.608-.638-.624-.373-.012-.746-.012-1.119-.02-.718-.014-.857-.146-.869-.871-.022-1.4-.036-2.795-.058-4.193a2.685,2.685,0,0,0-.062-.373l-.136-.072m34.241,34.769c-.191-.1-.381-.2-.57-.309a3.641,3.641,0,0,1-1.956-2.578,22.949,22.949,0,0,1-.311-3.922c-.042-1.9-.07-3.794-.1-5.692-.036-2.141-.066-4.287-.1-6.43-.014-.839-.036-1.677-.048-2.516-.006-.532-.01-1.065.018-1.6a.679.679,0,0,1,.59-.662.652.652,0,0,1,.7.524c.383,1.148.762,2.3,1.148,3.441a1.064,1.064,0,0,1-.128,1.013,8.145,8.145,0,0,0-.5.794,1.228,1.228,0,0,0-.146.5c-.01.225.14.3.341.193a1.134,1.134,0,0,0,.167-.116,21.638,21.638,0,0,0,3.14-3.174.521.521,0,0,0,.1-.249,1.706,1.706,0,0,0-.2-1q-1.264-2.5-2.526-5.012c-.2-.4-.389-.463-.772-.241-.453.265-.893.552-1.336.833-.6.379-.766.289-.823-.411-.036-.439-.092-.875-.152-1.312-.036-.267-.169-.311-.375-.138a2.466,2.466,0,0,0-.247.255q-1.773,2.113-3.547,4.227c-.443.528-.421.586.251.706.508.09.586.169.654.678.01.082.012.169.014.255q.045,2.4.09,4.8c.036,2,.066,4,.1,6q.036,2,.08,4.015a10.789,10.789,0,0,1-.116,2.6,3.954,3.954,0,0,1-2.251,2.979,1.168,1.168,0,0,0-.169.118c0,.024.008.05.014.076a35.508,35.508,0,0,0,8.934,1.449c.014-.032.022-.066.034-.1m-17-14.961c.054,2.117.106,4.233.169,6.35.022.692.054,1.388.128,2.077a1.283,1.283,0,0,0,.309.648c.425.5.881.983,1.338,1.459.11.114.327.291.391.255a.763.763,0,0,0,.3-.427c.385-1.384.754-2.775,1.13-4.161.122-.449.241-.9.377-1.344.026-.084.108-.2.173-.211a.337.337,0,0,1,.239.148c.475.7.951,1.4,1.41,2.113a.863.863,0,0,1-.038,1.057c-.845,1.2-1.681,2.4-2.492,3.621a1.162,1.162,0,0,1-1.214.586c-.678-.08-1.366-.1-2.048-.169a1.274,1.274,0,0,1-.955-.56c-.817-1.134-1.653-2.255-2.448-3.4a1.6,1.6,0,0,1-.271-.875c.024-1.862.082-3.726.136-5.587.036-1.346.082-2.69.124-4.035.04-1.364.088-2.727.122-4.089a1.916,1.916,0,0,1,.63-1.434c1.043-.983,2.05-2,3.072-3.007.03-.03.062-.058.092-.086.552-.484.722-.5,1.342-.108,1,.634,2.01,1.256,3,1.91a1.385,1.385,0,0,1,.536.614c.564,1.595,1.089,3.2,1.633,4.8a1.331,1.331,0,0,1-.211,1.314c-.4.544-.758,1.122-1.14,1.683-.4.588-.572.66-1.254.494-1.2-.293-2.4-.6-3.6-.891a3.822,3.822,0,0,0-.6-.1c-.271-.022-.383.066-.4.341-.016.339,0,.678,0,1.017Zm.144-4.125h-.008c0,.2,0,.407,0,.61,0,.415.076.524.484.61.355.078.716.13,1.073.187.71.112,1.42.231,2.135.323.443.058.538-.072.377-.484-.239-.606-.488-1.21-.736-1.812-.588-1.4-1.186-2.8-1.768-4.209-.211-.514-.524-.453-.883-.333a.756.756,0,0,0-.514.766c-.054,1.449-.106,2.893-.161,4.342m-85.977-9.791c-.052-.59-.1-1.182-.154-1.772-.022-.279-.034-.56-.066-.837-.028-.247-.132-.289-.341-.167a1.253,1.253,0,0,0-.126.084q-2.326,1.794-4.647,3.591a.943.943,0,0,0-.173.251,1.035,1.035,0,0,0,.289.122c.463.048.927.076,1.39.118.488.046.6.163.612.656q.057,1.827.1,3.659.054,2.083.1,4.167.075,3.419.152,6.835.054,2.465.1,4.931a1.479,1.479,0,0,1-.435,1.178c-.3.283-.586.588-.869.891a.818.818,0,0,0-.1.241,2.081,2.081,0,0,0,.245.086.591.591,0,0,0,.179,0q2.955-.153,5.91-.313a.769.769,0,0,0,.241-.106.827.827,0,0,0-.128-.231c-.325-.3-.652-.59-.989-.877a1.286,1.286,0,0,1-.461-.981q-.105-2.781-.2-5.561c-.046-1.26-.082-2.524-.126-3.784l-.229-6.221c-.044-1.134-.084-2.269-.136-3.4-.022-.494-.02-.512.4-.7.307-.136.405-.094.486.241.343,1.441.688,2.881,1.017,4.326a1.782,1.782,0,0,1-.175,1.757.069.069,0,0,0-.01.022c0,.094-.028.231.022.279a.338.338,0,0,0,.295.056,1.684,1.684,0,0,0,.443-.283c.674-.57,1.318-1.174,2.016-1.711a1.137,1.137,0,0,0,.433-1.34c-.327-1.14-.634-2.281-1-3.409a11.915,11.915,0,0,0-1.246-2.714c-.2-.313-.331-.331-.654-.152a2.411,2.411,0,0,0-.215.136c-.5.335-1,.672-1.5,1.005-.108.07-.227.126-.375.211a1.754,1.754,0,0,1-.072-.289m11.4-1.412c-.008-.167-.022-.335-.022-.5-.008-.684-.01-1.372-.022-2.058a1.065,1.065,0,0,0-.078-.251.881.881,0,0,0-.263.106q-1.023.819-2.034,1.651c-.473.385-.953.762-1.41,1.164-.327.287-.3.488.066.72.07.048.138.1.213.138a.78.78,0,0,1,.417.774c-.03,1.374-.038,2.747-.056,4.117q-.027,2.314-.05,4.626-.033,3.762-.064,7.526c-.008.957-.028,1.914-.036,2.873a2.446,2.446,0,0,1-.628,1.647c-.183.2-.355.411-.52.624a1.9,1.9,0,0,0-.152.3l.357.032c.008,0,.016-.006.024-.006a13.58,13.58,0,0,1,4.211-.325c.261.026.524.048.786.05.227,0,.277-.09.159-.283a2.459,2.459,0,0,0-.269-.4,3.032,3.032,0,0,1-.662-2.169c.02-5.756.008-11.512.01-17.268a5.361,5.361,0,0,1,.03-.762,1.835,1.835,0,0,1,.209-.666c.241-.393.576-.369.75.05a7.582,7.582,0,0,1,.421,1.274c.169.774.315,1.557.417,2.343a2.381,2.381,0,0,1-.353,1.557.479.479,0,0,0,0,.409c.1.165.285.106.429.016a2.046,2.046,0,0,0,.225-.169c.8-.692,1.6-1.39,2.4-2.076a.767.767,0,0,0,.251-.931c-.361-.955-.722-1.916-1.091-2.869-.327-.853-.654-1.705-1-2.55-.169-.411-.3-.431-.666-.171-.09.064-.177.132-.263.2-.429.345-.855.692-1.288,1.035-.122.094-.255.177-.383.265a.541.541,0,0,1-.07-.042" transform="translate(0 -149.475)" fill="#a85"/>
    <g id="Group_1" data-name="Group 1" transform="translate(105.822 43.02)">
      <path id="Path_2" data-name="Path 2" d="M405.285,154.388a2.927,2.927,0,1,1-2.432-4.468,3.594,3.594,0,0,1,1.926.56c-.54-.2-2.389-.56-3.3.658a2.775,2.775,0,0,0-.5,1.617,2.168,2.168,0,0,0,1.882,2.385,1.851,1.851,0,0,0,1.751-1.689,2.248,2.248,0,0,0-.435-1.766,1.028,1.028,0,0,0-1.455-.187.611.611,0,0,0,.351,1.124.709.709,0,0,1-.911-.829,3.837,3.837,0,0,1,.566-1.067l1.525.022,1.214,1.136a4.885,4.885,0,0,1,.173.554,2.661,2.661,0,0,1-.347,1.95" transform="translate(-387.913 -128.473)" fill="#a85"/>
      <path id="Path_3" data-name="Path 3" d="M433.163,151.692a.937.937,0,0,0-.893-.957h-.584v2.034h.59a.975.975,0,0,0,.887-1.077m.373,4.041.273-.295-1.543-2.213h-.58v2.213l.273.295H430.37l.279-.295v-4.871l-.275-.3h2.3a1.467,1.467,0,0,1,1.517,1.7l.277-.008s-.482.548-.494.566l.185.138-1.055.477.333.116,1.527,2.181.273.295Z" transform="translate(-412.293 -128.753)" fill="#a85"/>
      <path id="Path_4" data-name="Path 4" d="M455.862,150.28l.273.293v4.873l-.275.295h3.481l.118-1.087-.518.634h-1.972l.213-.227v-4.488l.281-.293" transform="translate(-432.67 -128.761)" fill="#a85"/>
      <path id="Path_5" data-name="Path 5" d="M478.464,152.974c0-1.126-.528-2.251-1.575-2.251H475.5v4.328l-.213.227h1.182a2.14,2.14,0,0,0,1.994-2.3m1.091-.024a2.691,2.691,0,0,1-2.578,2.783h-2.795l.277-.295v-3.146l-.331-.694.349.146-.518-1,.548.042-.451-.52h3.132a2.417,2.417,0,0,1,2.367,2.68" transform="translate(-447.138 -128.753)" fill="#a85"/>
      <path id="Path_6" data-name="Path 6" d="M376.882,104.4a1.093,1.093,0,0,1,1.083.963v0l0,0a3.547,3.547,0,0,1,.024.391h12.876v-.134l-.522-.369s-11.761,0-11.873,0a1.632,1.632,0,0,0-1.593-1.37h0a1.63,1.63,0,0,0-1.591,1.37c-.112,0-11.873,0-11.873,0l-.522.369v.134h12.876a3.547,3.547,0,0,1,.024-.391v0a1.1,1.1,0,0,1,1.083-.963" transform="translate(-358.352 -91.67)" fill="#a85"/>
      <path id="Path_7" data-name="Path 7" d="M430.7,45.339c.006.08.084.128.136.152l.022.965-.1.1a.152.152,0,0,0-.052.112c0,.026,0,.058,0,.088a.713.713,0,0,0,.173.419.132.132,0,0,0,.014.016l.008.169a4.876,4.876,0,0,0,.03.722l.022.445a.531.531,0,0,0-.122.429.3.3,0,0,0,.126.167v.028a2.905,2.905,0,0,0,0,.734v.654a.493.493,0,0,0-.114.375.381.381,0,0,0,.088.257c.01.092.024.185.038.273l.008.056-.022,1.26a.632.632,0,0,0,.028.63c.008.235.03,1.1.03,1.109,0,.024.018.108.092.108a.115.115,0,0,0,.116-.122c.018-.309.052-.915.044-1.1a.633.633,0,0,0,.028-.63l0-.173a1.547,1.547,0,0,0,0-.287l-.006-.341a1.836,1.836,0,0,0,0-.257l0-.271c.008-.08.012-.156.016-.235a.365.365,0,0,0,.108-.241.5.5,0,0,0-.1-.417l0-.082a.824.824,0,0,0,0-.2l-.02-1.138a.331.331,0,0,0,.116-.189.534.534,0,0,0-.126-.417l.006-1.322a.828.828,0,0,0,.187-.522.16.16,0,0,0-.052-.112l-.1-.1v-.008c.01-.148.014-.3.01-.461l.014-.5c.05-.022.13-.072.136-.152,0-.036.018-.146.04-.307a.248.248,0,0,0-.169-.275l-.034-.614a.361.361,0,0,0,.14-.329.34.34,0,0,0-.191-.257l.167-.275v-.012c0-.02.006-.195-.108-.221a.9.9,0,0,0-.241-.032h-.03a.55.55,0,0,0-.14.018l-.006,0-.038.01c-.114.026-.11.2-.11.221l0,.012.167.277a.329.329,0,0,0-.191.255.363.363,0,0,0,.14.329l-.036.614a.244.244,0,0,0-.162.275c.03.158.046.267.048.3" transform="translate(-412.519 -43.02)" fill="#a85"/>
      <path id="Path_8" data-name="Path 8" d="M410.528,47.392a1.1,1.1,0,0,1,.128.06l.084.044.008.026a.446.446,0,0,0,.044.132,1.166,1.166,0,0,1,.056.189c0,.008.006.016.01.024l.12.207.024.076.016.01a.064.064,0,0,0,.012.01.09.09,0,0,0-.02.054.274.274,0,0,0,.092.165,2.725,2.725,0,0,1,.114.345.424.424,0,0,0,.022.2c.01.04.034.12.04.158a2,2,0,0,0,.064.239l.048.148a1.065,1.065,0,0,1,.032.132c0,.02.008.09.026.329a.1.1,0,0,0,.032.066l.084.078a.509.509,0,0,1,.054.064.25.25,0,0,0,.062.056l.231.688c.14.455.3.983.471,1.495.05.154.1.315.15.471a16.616,16.616,0,0,0,.572,1.607l1.033,3.086a.124.124,0,0,0,.152.08.058.058,0,0,0,.024-.014.122.122,0,0,0,.046-.134l-.871-2.911a2.414,2.414,0,0,0-.114-.4l-.02-.044-.016-.054a1.282,1.282,0,0,0-.064-.387c-.062-.158-.13-.313-.189-.443l-.066-.221c-.09-.371-.2-.76-.345-1.192-.042-.124-.076-.217-.11-.3L412.1,50a.11.11,0,0,0,.058-.046.094.094,0,0,0,.008-.08l-.124-.4a.111.111,0,0,0-.028-.042l-.074-.066-.012-.042,0-.052a.084.084,0,0,0-.008-.036l-.183-.439.024-.08a.132.132,0,0,0,0-.068l-.022-.07a.1.1,0,0,0-.038-.052l-.07-.066-.008,0-.052-.136-.078-.309-.195-.532c.054-.195.044-.227.04-.243a.429.429,0,0,1,0-.072.371.371,0,0,0,0-.092c0-.022,0-.08,0-.158a.1.1,0,0,0-.072-.094l-.09-.026-.1-.036-.08-.022a.078.078,0,0,0-.052,0l-.094.03c-.09,0-.138.028-.14.072a.326.326,0,0,1-.05.072l-.1.032-.01,0c-.022.014-.1.06-.106.122a1.02,1.02,0,0,0,0,.177c.006.062.02.124.076.144" transform="translate(-396.366 -45.987)" fill="#a85"/>
      <path id="Path_9" data-name="Path 9" d="M367.36,90.256a.672.672,0,0,0,.054.068,1.217,1.217,0,0,0,.245.158.476.476,0,0,0,.177.074c.026.006.068.022.11.036a.834.834,0,0,0,.185.058l.03.006a.256.256,0,0,0,.195-.024.237.237,0,0,0,.068-.112c0-.026-.1.022-.213-.084-.02-.022-.136-.122-.138-.146a.391.391,0,0,1,.1-.175.42.42,0,0,1,.11.03.8.8,0,0,1,.3.173.76.76,0,0,0,.478.193,2.936,2.936,0,0,1,1.651.441c.112.11.207.084.215.08l.012,0,.008-.008a.56.56,0,0,1,.437-.1l1.89.546a3.164,3.164,0,0,0,.482.138L378,92.842a.094.094,0,0,0,.034.006.117.117,0,0,0,.1-.163.111.111,0,0,0-.07-.064c-.267-.086-1.192-.405-2.343-.776a3.887,3.887,0,0,0-.441-.177,2.894,2.894,0,0,0-.4-.092c-2.237-.724-3.491-1.136-3.629-1.194-.11-.044-.12-.08-.12-.08,0-.022.048-.064.07-.078s.052-.038.052-.074l-.006-.03-.024-.014a2.208,2.208,0,0,0-.6-.034c-.415.012-1.838-.177-2.1-.542a1.166,1.166,0,0,0-.193-.213,1.308,1.308,0,0,1-.146-.152c-.163-.211-.475-.287-.566.038-.07.249-.383.253-.447.508-.028.112.076.179.124.273.024.088,0,.195.064.273" transform="translate(-361.77 -79.761)" fill="#a85"/>
      <path id="Path_10" data-name="Path 10" d="M451.789,91.529c-.261.084-.53.171-.8.249a.943.943,0,0,1-.273.02l-.024,0a.3.3,0,0,1-.078-.026.511.511,0,0,0-.048-.022l-.036-.016-.056.086.03.028a.043.043,0,0,0,.012.014l.018.016c.008.01.014.022.022.032l-.036.014a.578.578,0,0,1-.084.022c-.04.012-.082.022-.122.036-.078.03-.154.06-.227.09s-.14.054-.209.08-.164.058-.265.088l-.786.225-.108.024c-.024.008-.05.01-.074.02l-.11.026c-.066.02-.136.036-.2.052-.14.032-.259.072-.387.114-.074.024-.152.052-.233.076a5,5,0,0,0-.494.187l-.088.036c-.15.062-.3.13-.449.195-.094.042-.189.084-.285.124-.122.052-.263.094-.4.136-.106.034-.217.066-.315.1-.2.076-.407.14-.614.2-.11.034-.213.082-.323.11-.074.022-.15.048-.227.068-.14.038-.293.084-.419.124-.042.012-.086.034-.128.046-.074.024-.13.04-.2.058s-.14.042-.217.06-.04.008-.11.028-.118.036-.11.1c.008.026.032.052.116.052,0,0,.156-.01.251-.026.229-.042.439-.1.684-.152.1-.022.239-.1.333-.122s.177-.036.275-.058l.257-.062c.128-.028.231-.092.345-.122a1.855,1.855,0,0,0,.5-.146,2.252,2.252,0,0,1,.447-.148c.042-.014.082-.032.12-.048.02-.008.038-.016.058-.022.06-.024.122-.052.181-.08a2.094,2.094,0,0,1,.387-.144c.062-.016.124-.034.183-.052a1.137,1.137,0,0,1,.307-.072.641.641,0,0,0,.108-.016l.022,0c.138-.028.267-.066.389-.1a3.773,3.773,0,0,1,.375-.1l.156-.032c.163-.034.331-.066.5-.1.094-.022.187-.052.277-.078.048-.018.1-.032.15-.048l.088-.022a1.043,1.043,0,0,0,.15-.04c.158-.058.315-.124.463-.185l.018-.008a.258.258,0,0,0,.138-.092c.03-.056.072-.064.148-.07l.227-.018c.211-.018.429-.036.642-.062a3.128,3.128,0,0,0,.494-.106c.124-.036.251-.078.371-.12.15-.05.307-.1.461-.144.2-.052.64-.15.843-.2.122-.026.243-.052.363-.08.074-.018.177-.076.171-.146a.161.161,0,0,0-.06-.11.2.2,0,0,1-.08-.183.137.137,0,0,0-.1-.122l-.028,0a.661.661,0,0,0-.251,0c-.1.026-.433.1-.534.116a2.859,2.859,0,0,0-.463.118c-.189.072-.389.134-.58.195-.074.022-.148.046-.223.07" transform="translate(-422.658 -81.325)" fill="#a85"/>
      <path id="Path_11" data-name="Path 11" d="M449.751,71.355l-.881.728a.186.186,0,0,0-.1.036.214.214,0,0,0-.054.088c-.277.2-6.386,4.721-7.134,5.283a.1.1,0,0,0,.122.165c.813-.584,6.879-4.9,7.241-5.152a.144.144,0,0,0,.116-.022.173.173,0,0,0,.056-.068c.052-.03.189-.1.287-.154s.8-.49.937-.558c.337-.114.654-.337.463-.722a.422.422,0,0,0-.5-.2.4.4,0,0,0-.271.427.484.484,0,0,1-.2.01.025.025,0,0,0-.024.02.085.085,0,0,0-.01.034.18.18,0,0,1-.056.086" transform="translate(-421.225 -65.193)" fill="#a85"/>
      <path id="Path_12" data-name="Path 12" d="M377.646,71.756a.593.593,0,0,1,.295.138c.084.074.285.146.363.211a1.385,1.385,0,0,0,.331.195.393.393,0,0,1,.2.13c.038.058.171.07.171.07a1.046,1.046,0,0,0,.114.1,2.734,2.734,0,0,1,.387.241c.088.088.361.223.562.383a2.483,2.483,0,0,0,.419.295,2.935,2.935,0,0,1,.375.275c.1.084.257.173.357.261a4.52,4.52,0,0,0,.469.313c.163.1.367.275.5.357s.415.257.52.343.463.345.64.455a5.343,5.343,0,0,1,.532.383c.156.13.63.433,1.051.714s1.34.925,1.463,1.007.187.024.2,0,.026-.072-.066-.161-.578-.431-.784-.58-.795-.6-.947-.716l-1.414-1.023c-.233-.169-.554-.391-.724-.512s-.4-.281-.6-.405-.325-.273-.6-.457-.393-.325-.638-.461a2.357,2.357,0,0,1-.465-.351c-.124-.11-.331-.181-.439-.3a.882.882,0,0,0-.317-.2c-.02-.062-.227-.175-.279-.213s-.492-.484-.682-.636a3.409,3.409,0,0,0-.433-.267c-.074-.052-.122-.16-.327-.371a.421.421,0,0,0-.63.524c.064.183.283.233.4.261" transform="translate(-369.789 -65.288)" fill="#a85"/>
      <path id="Path_13" data-name="Path 13" d="M435.909,58.169l.022.014a.1.1,0,0,0,.084,0,.225.225,0,0,0,.11-.163c.038-.122.09-.3.144-.484l.132-.451c.118-.4.469-1.344.658-1.854.068-.185.112-.307.12-.329s.014-.05.02-.072a1.915,1.915,0,0,1,.074-.247c.01-.036.028-.08.048-.138.116-.329.357-1.013.471-1.438a.716.716,0,0,1,.044-.124.973.973,0,0,0,.048-.14c.008-.038.022-.076.034-.116a1.07,1.07,0,0,0,.05-.177.348.348,0,0,1,.03-.08c.022-.052.058-.134.108-.277.056-.167.2-.6.3-.881.05-.15.086-.263.09-.275s.022-.052.048-.11c.038-.088.1-.223.175-.4.13-.313.373-.935.546-1.388.06-.158.12-.307.175-.443a6.32,6.32,0,0,0,.247-.678.49.49,0,0,0-.277-.554.114.114,0,0,0-.159.078l-.006.008a5.209,5.209,0,0,0-.233.8c-.04.171-.074.317-.1.4-.239.666-.333.965-.441,1.314-.042.132-.084.273-.138.441-.086.261-.253.758-.429,1.286-.227.676-.461,1.374-.542,1.641-.092.295-.5,1.525-.794,2.424-.183.552-.325.989-.345,1.051-.054.173-.275.915-.325,1.1-.034.124-.054.211.014.259" transform="translate(-416.685 -46.484)" fill="#a85"/>
      <path id="Path_14" data-name="Path 14" d="M445.556,56.17l-.634-.455a.1.1,0,0,0-.118.008.144.144,0,0,0-.046.13l.014.082a.272.272,0,0,1-.044.193l-1.5,2.229a.061.061,0,0,0-.008.016l-.036.13a.057.057,0,0,1-.028.036l-.159.07a.147.147,0,0,0-.08.118.14.14,0,0,0,.018.074.106.106,0,0,0,.022.03c-1.316,1.8-4.338,6.017-4.386,6.081s-.118.179-.034.231.193-.1.193-.1c1.075-1.358,3.878-5.134,4.524-6a.17.17,0,0,0,.034.01.177.177,0,0,0,.078-.008.144.144,0,0,0,.086-.112l.018-.173a.043.043,0,0,1,.022-.038l.112-.078s.008-.008.012-.012l1.609-2.149a.271.271,0,0,1,.169-.1l.082-.012a.138.138,0,0,0,.108-.084.1.1,0,0,0-.032-.118" transform="translate(-418.792 -53.154)" fill="#a85"/>
      <path id="Path_15" data-name="Path 15" d="M370.054,150.28l.259.295-1.121,3.25-1.109-3.256.3-.287h-1.647l.265.295-.889,3.146-1.184-3.146.243-.295H363.55l.289.295,2.042,5.4.291-.313,1.152-4.193,1.541,4.508.273-.3c.377-1.091,1.756-5.1,1.756-5.106l.331-.295" transform="translate(-358.879 -128.761)" fill="#a85"/>
      <path id="Path_16" data-name="Path 16" d="M376.24,120.67h-1.366l.267.285v3.874l-.271.291h1.37l-.273-.291v-3.87" transform="translate(-367.928 -105.091)" fill="#a85"/>
      <path id="Path_17" data-name="Path 17" d="M467.9,120.67h-1.366l.267.285v3.874l-.269.291H467.9l-.269-.291v-3.87" transform="translate(-441.199 -105.091)" fill="#a85"/>
      <path id="Path_18" data-name="Path 18" d="M387.528,121.274v-.594h-3.094l-.154,1.057.584-.612h1.8l-2.359,3.387v.618h3.222l.112-.977s-.506.534-.508.534H385.2l1.461-2.129.626-.417-.227-.128.817-.522" transform="translate(-375.45 -105.099)" fill="#a85"/>
      <path id="Path_19" data-name="Path 19" d="M427.761,122.734a.847.847,0,0,0,.734-.865.725.725,0,0,0-.728-.76h-.618v1.625m5.682,2.209a1.593,1.593,0,0,1-1.741,1.274,2.935,2.935,0,0,1-2.335-1.051,5.766,5.766,0,0,1-1.021-1.988l-.582,0v1.643l.267.291H426.05l.271-.291v-3.872l-.267-.287h1.992a1.315,1.315,0,0,1,.57.132,1.168,1.168,0,0,1,.71,1.047,1.4,1.4,0,0,1-.889,1.232l.329.114a6.489,6.489,0,0,0,.768,1.651,2.009,2.009,0,0,0,1.751.951,1.152,1.152,0,0,0,1.073-.475l-.183-.187-.534.3.251-.49h.937Z" transform="translate(-408.84 -105.083)" fill="#a85"/>
      <path id="Path_20" data-name="Path 20" d="M479.6,120.959l.269-.287h-1.073l.269.287v2.993l-2.339-3.282h-1.069l.267.287v3.872l-.269.291h1.065l-.269-.293v-3.084l2.4,3.377h1.021l-.269-.291" transform="translate(-448.489 -105.091)" fill="#a85"/>
      <path id="Path_21" data-name="Path 21" d="M404.759,123.461l-.682-1.874-.827,1.874m3.156,1.659H404.99l.269-.291-.265-.73.2-.193H403.05l-.405.923.271.291H401.78l.271-.291.455-1.025-.359-.343h.51l1.109-2.5-.261-.287H405l-.267.287,1.41,3.87Z" transform="translate(-389.439 -105.091)" fill="#a85"/>
      <path id="Path_22" data-name="Path 22" d="M448.461,122.542c0-.524-.175-1.426-1.085-1.426H446.7v2.751l-.211.223h.823c.839,0,1.152-.839,1.152-1.547m.9.006a1.8,1.8,0,0,1-1.661,1.986h-2.06l.235-.289v-3.292l-.271-.283h2a1.668,1.668,0,0,1,1.753,1.878" transform="translate(-424.468 -105.091)" fill="#a85"/>
      <path id="Path_23" data-name="Path 23" d="M345.835,120.67l.271.291-.865,2.554-.987-2.556.273-.289h-1.469l.271.289-.823,2.753-.477-1.115.353.146-.654-1.246.407.171-.467-1h-1.4l.819,1.42-.443-.189,1.031,1.6-.433-.181,1.154,2.155.223-.309,1.061-3.433,1.4,3.675.223-.309,1.376-4.137.275-.291" transform="translate(-340.27 -105.091)" fill="#a85"/>
      <path id="Path_24" data-name="Path 24" d="M502.859,122.136h-1.565c-.425,0-.857.03-1.011.389a1.282,1.282,0,0,0-.04.124l.459.439.207-.5h.895l-.215.231v1.376a2.424,2.424,0,0,1-.825.142,1.888,1.888,0,0,1,0-3.76,1.827,1.827,0,0,1,1.164.4,3.11,3.11,0,0,1,.4.492l.353-1.17-.514.187a3.669,3.669,0,0,0-1.392-.351,2.379,2.379,0,0,0-2.608,2.345,2.409,2.409,0,0,0,.654,1.679,2.5,2.5,0,0,0,1.93.634,4,4,0,0,0,1.675-.391v-1.314l.4-.463-.361-.062" transform="translate(-466.491 -104.66)" fill="#a85"/>
      <path id="Path_25" data-name="Path 25" d="M399.424,64.956c-.022-.032-1.772-2.462-2.887-4.033a.816.816,0,0,0-.08-.148,2.438,2.438,0,0,0-.321-.4c-.09-.124-.187-.255-.219-.3a.034.034,0,0,0,0-.014.806.806,0,0,0-.12-.173.227.227,0,0,1-.014-.018.545.545,0,0,0-.1-.193.949.949,0,0,0-.1-.144l-.335-.471.018-.078v0a.393.393,0,0,0-.136-.195l0,0-.072.008-.086-.118.018-.062v0a.17.17,0,0,0-.016-.048.81.81,0,0,0-.058-.086.106.106,0,0,0-.066-.042l-.052-.008-.179-.255,0-.1,0,0a1.133,1.133,0,0,0-.11-.16l-.108-.036-.138-.195c.014-.036.038-.086.022-.118-.028-.048-.066-.118-.1-.173a.161.161,0,0,0-.148-.07l-.034,0-.548-.766-.02-.07a.152.152,0,0,0-.052-.08l-.116-.086-.273-.405a.1.1,0,0,0-.066-.042.1.1,0,0,0-.078.018l-.257.191a.1.1,0,0,0-.022.14l.165.233.022.116a.121.121,0,0,0,.068.084l.112.05.487.662,0,.058v.014a.115.115,0,0,0,0,.052.609.609,0,0,0,.078.122.139.139,0,0,0,.026.022l.122.062c.181.243.343.49.536.722l0,.052a.147.147,0,0,0,.022.084c.022.03.054.072.08.1a.139.139,0,0,0,.072.042l.042.008.1.13-.014.054v0a.557.557,0,0,0,.082.124l.006,0h.058l.154.213-.01.108v0a.444.444,0,0,0,.124.146l.082.008.154.209a.116.116,0,0,0,.006.038.294.294,0,0,0,.06.112.525.525,0,0,0,.128.108l.124.169a.252.252,0,0,0,.1.15.06.06,0,0,0,.022.008c.217.289.56.744.568.756s.185.243.443.59a.812.812,0,0,0,.235.313c.393.522,2.339,3.1,2.4,3.176a.167.167,0,0,0,.12.07.1.1,0,0,0,.076-.034.133.133,0,0,0,.006-.2" transform="translate(-382.058 -53.284)" fill="#a85"/>
      <path id="Path_26" data-name="Path 26" d="M499.49,175.24v.064h.14v.389h.068V175.3h.142v-.064" transform="translate(-467.546 -148.713)" fill="#a85"/>
      <path id="Path_27" data-name="Path 27" d="M501.67,175.24h.074l.154.383.154-.383h.074v.451h-.066v-.313c0,.01-.022.064-.022.064l-.106.249h-.066l-.106-.249s-.02-.052-.022-.064v.313h-.066" transform="translate(-469.289 -148.713)" fill="#a85"/>
    </g>
  </g>
</svg>
