<svg xmlns="http://www.w3.org/2000/svg" width="17.8" height="20" viewBox="0 0 17.8 20">
  <g id="Group_13" data-name="Group 13" transform="translate(-1006 -133)">
    <g id="arrow-head" transform="translate(1007 133)">
      <g id="Group_12" data-name="Group 12">
        <path id="Path_54" data-name="Path 54" d="M9.8,10.02l-1.24,1.3-.018-.02-6.831,7.16.62.649L1.479,20-1,17.4l.851-.893.62.65L7.3,10,.472,2.841l-.62.65L-1,2.6,1.48,0l.85.892-.619.65L8.542,8.7l.018-.02L9.8,9.98,9.782,10Z" fill="#fcf5e7"/>
      </g>
    </g>
    <g id="arrow-head-2" data-name="arrow-head" transform="translate(1014 133)">
      <g id="Group_12-2" data-name="Group 12">
        <path id="Path_54-2" data-name="Path 54" d="M9.8,10.02l-1.24,1.3-.018-.02-6.831,7.16.62.649L1.479,20-1,17.4l.851-.893.62.65L7.3,10,.472,2.841l-.62.65L-1,2.6,1.48,0l.85.892-.619.65L8.542,8.7l.018-.02L9.8,9.98,9.782,10Z" fill="#fcf5e7"/>
      </g>
    </g>
  </g>
</svg>
