<svg xmlns="http://www.w3.org/2000/svg" width="36" height="30" viewBox="0 0 36 30"><g><g><path fill="#4a2b10" d="M34.89 1.648c-.177.163-6.884 5.91-13.217 12.258.689.693 1.288 1.498 1.574 2.385l-4.465.855S18.93 38.82 0 25.88c.05-.071.069-.112.059-.122l.118-.051c.993.163 2.694.214 4.74-1.264 1.298-.866 1.967-2.843 3.707-4.87 3.855-4.453 8.25-4.086 8.25-4.086s.64-1.284 1.062-4.189c0 0 1.102.52 2.321 1.417C26.501 6.417 33.493.394 33.67.23a.885.885 0 0 1 1.279.092c.295.387.314 1.019-.06 1.325z"/></g></g></svg>