<svg xmlns="http://www.w3.org/2000/svg" width="1239" height="3" viewBox="0 0 1239 3"><g><g><path fill="#4a2b10" d="M4.839 1.954c40.771-.609 95.038.153 142.184 0 5.995-.019 3.66-.446 5.675-.48 3.958-.066 9.432.642 17.074.48 2.299-.049 7.24-.48 5.687-.48 16.742-.012 30.51.917 51.186.48 2.43-.051 7.086-.483 5.688-.48 4.265-.008 9.526.466 17.062.48 4.609.008 9.088-.51 17.05-.48 4.692.018 9.29.447 17.074.48 31.162.131 60.06-.28 90.997-.48 60.132-.388 120.81 0 181.995 0 59.93 0 119.103-.292 176.296 0 27.406.14 49.966.749 85.322.48 9.752-.074 18.71-.464 28.425-.48-1.6.003 2.844.466 5.7.48 9.348.042 9.68-.484 17.061-.48-1.303 0 2.595.466 5.676.48 1.908.008 16.043.106 17.074 0 8.164-.844 12.82 1.024 22.75 0 8.163-.844 12.82 1.024 22.749 0 5.142-.53 2.962-.071 11.374 0 6.896.058 10.238-.486 11.375-.48 5.77.037 12.334.472 22.75.48 10.497.008 24.123.035 34.112 0-.913.003 2.322-.465 5.699-.48 4.076-.018 9.633.474 17.05.48 61.779.054 128.546-.039 199.057 0 .853-1.713-27.382-.926-34.124-.96-42.394-.214-87.763.181-136.484 0-13.496-.05-25.771-.383-39.812-.479-105.18-.727-223.394-.052-335.565 0-19.467.008-38.425-.091-56.874 0-15.889.079-29.621.442-45.498.479-5.036.012-12.157.09-17.05 0-4.669-.085-5.629-.479-11.387-.479-10.202.001-11.967.526-22.75.479-15.604-.067-34.254-.451-51.174-.479-93.699-.162-195.336-.309-295.742 0-9.336.028-19.183-.097-28.448 0-19.693.204-45.463.676-79.611 0C79.699.42 78.857.074 73.087.034 37.932-.209 50.255.957 23.88.147c0 0-36.79 2.073-19.041 1.807"/></g></g></svg>