<svg xmlns="http://www.w3.org/2000/svg" width="46" height="46" viewBox="0 0 46 46"><defs><clipPath id="o2k8a"><path fill="#fff" d="M24.364 1.806l19.729 19.73a2 2 0 0 1 0 2.828l-19.73 19.729a2 2 0 0 1-2.828 0l-19.73-19.73a2 2 0 0 1 0-2.828l19.73-19.73a2 2 0 0 1 2.829 0z"/></clipPath><clipPath id="o2k8b"><path fill="#fff" d="M38.902 9v27.902a2 2 0 0 1-2 2H9a2 2 0 0 1-2-2V9a2 2 0 0 1 2-2h27.902a2 2 0 0 1 2 2z"/></clipPath><clipPath id="o2k8c"><path fill="#fff" d="M23.13 45.562c12.389 0 22.432-10.043 22.432-22.431C45.562 10.743 35.519.7 23.13.7 10.743.7.7 10.743.7 23.13c0 12.389 10.043 22.432 22.43 22.432z"/></clipPath></defs><g><g><g><path fill="none" stroke="#b19265" stroke-miterlimit="20" stroke-width="2" d="M24.364 1.806l19.729 19.73a2 2 0 0 1 0 2.828l-19.73 19.729a2 2 0 0 1-2.828 0l-19.73-19.73a2 2 0 0 1 0-2.828l19.73-19.73a2 2 0 0 1 2.829 0z" clip-path="url(&quot;#o2k8a&quot;)"/></g><g><path fill="none" stroke="#b19265" stroke-miterlimit="20" stroke-width="2" d="M38.902 9v27.902a2 2 0 0 1-2 2H9a2 2 0 0 1-2-2V9a2 2 0 0 1 2-2h27.902a2 2 0 0 1 2 2z" clip-path="url(&quot;#o2k8b&quot;)"/></g><g><path fill="none" stroke="#b19265" stroke-miterlimit="20" stroke-width="2" d="M23.13 45.562c12.389 0 22.432-10.043 22.432-22.431C45.562 10.743 35.519.7 23.13.7 10.743.7.7 10.743.7 23.13c0 12.389 10.043 22.432 22.43 22.432z" clip-path="url(&quot;#o2k8c&quot;)"/></g><g><path fill="#846a43" d="M14.997 18.343v.748H14V16.1h.997v.748h17.446V16.1h.997v2.99h-.997v-.747zm0 10.966v.748H14v-2.99h.997v.747h17.446v-.748h.997v2.99h-.997v-.747zm0-5.483v.748H14v-2.99h.997v.747h17.446v-.748h.997v2.99h-.997v-.747z"/></g></g></g></svg>