<svg xmlns="http://www.w3.org/2000/svg" width="46" height="46" viewBox="0 0 46 46"><defs><clipPath id="ot91a"><path fill="#fff" d="M24.364 1.806l19.729 19.73a2 2 0 0 1 0 2.828l-19.73 19.729a2 2 0 0 1-2.828 0l-19.73-19.73a2 2 0 0 1 0-2.828l19.73-19.73a2 2 0 0 1 2.829 0z"/></clipPath><clipPath id="ot91b"><path fill="#fff" d="M38.902 9v27.902a2 2 0 0 1-2 2H9a2 2 0 0 1-2-2V9a2 2 0 0 1 2-2h27.902a2 2 0 0 1 2 2z"/></clipPath><clipPath id="ot91c"><path fill="#fff" d="M23.13 45.562c12.389 0 22.432-10.043 22.432-22.431C45.562 10.743 35.519.7 23.13.7 10.743.7.7 10.743.7 23.13c0 12.389 10.043 22.432 22.43 22.432z"/></clipPath></defs><g><g><g><path fill="none" stroke="#b19265" stroke-miterlimit="20" stroke-width="2" d="M24.364 1.806l19.729 19.73a2 2 0 0 1 0 2.828l-19.73 19.729a2 2 0 0 1-2.828 0l-19.73-19.73a2 2 0 0 1 0-2.828l19.73-19.73a2 2 0 0 1 2.829 0z" clip-path="url(&quot;#ot91a&quot;)"/></g><g><path fill="none" stroke="#b19265" stroke-miterlimit="20" stroke-width="2" d="M38.902 9v27.902a2 2 0 0 1-2 2H9a2 2 0 0 1-2-2V9a2 2 0 0 1 2-2h27.902a2 2 0 0 1 2 2z" clip-path="url(&quot;#ot91b&quot;)"/></g><g><path fill="none" stroke="#b19265" stroke-miterlimit="20" stroke-width="2" d="M23.13 45.562c12.389 0 22.432-10.043 22.432-22.431C45.562 10.743 35.519.7 23.13.7 10.743.7.7 10.743.7 23.13c0 12.389 10.043 22.432 22.43 22.432z" clip-path="url(&quot;#ot91c&quot;)"/></g><g><g><path fill="#846a43" d="M28.928 15L31 17.079l-.712.714-.518-.52L24.062 23l5.708 5.727.518-.52.712.714L28.928 31l-.712-.714.518-.52-5.708-5.728-.016.017-.01-.011-.01.011-.016-.017-5.708 5.728.518.52-.712.714L15 28.921l.712-.714.518.52L21.938 23l-5.708-5.727-.518.52-.712-.714L17.072 15l.712.714-.518.52 5.708 5.727.016-.016.01.01.01-.01.016.016 5.708-5.728-.518-.52z"/></g></g></g></g></svg>