<svg xmlns="http://www.w3.org/2000/svg" width="54" height="55" viewBox="0 0 54 55"><g><g><path fill="#4a2b10" d="M27 5.27c.077 0 .154.003.23.009a4.08 4.08 0 0 0-2.637 1.2A2.996 2.996 0 0 1 27 5.27zm.23.009c.09-.006.18-.009.27-.009 2.247 0 4.07 1.806 4.07 4.022 0 .52-.102 1.017-.287 1.473.166-.014.337-.028.503-.028 2.875 0 5.214 2.312 5.214 5.153 0 2.621-1.993 4.787-4.558 5.107a.74.74 0 0 1-.199.045c-1.762.1-3.294 1.519-3.815 3.525a.665.665 0 0 1-.07.155H28.822a.698.698 0 0 1-.035 1.395h-.58V43.86l3.51-1.327.031-.01a.62.62 0 0 1 .767.361.608.608 0 0 1-.36.79l-2.242.847 2.242.853.005.003.014.006a.108.108 0 0 1 .017.006l.052.026a.28.28 0 0 1 .037.023l.014.01c.01.006.018.013.028.022l.05.04c.01.01.023.028.033.042a.481.481 0 0 1 .041.05c.01.014.018.032.023.046.01.018.023.036.032.059l.005.014c.005.013.005.022.01.036.004.018.013.041.018.064l.01.055c0 .018.004.04.004.059 0 .018 0 .036-.005.06-.005.017-.005.036-.01.058-.004.019-.009.042-.018.06 0 .013-.004.023-.009.036-.005.005-.005.005-.005.01a.44.44 0 0 1-.083.14c-.004.01-.013.019-.023.028a.425.425 0 0 1-.106.096l-.014.013-.028.017a.516.516 0 0 1-.092.043l-2.242.848 2.242.848.03.012c.299.13.446.472.33.777a.619.619 0 0 1-.803.35l-3.51-1.326v1.568l-.002.034a.702.702 0 0 1-.705.664.705.705 0 0 1-.706-.698v-23.45h-.581l-.034-.001a.701.701 0 0 1-.672-.697c0-.388.318-.697.706-.697h.508l-.017-.03a.717.717 0 0 1-.057-.13c-.522-2.006-2.053-3.424-3.811-3.525a.885.885 0 0 1-.153-.027C20.053 20.75 18 18.552 18 15.89c0-2.841 2.34-5.153 5.214-5.153.17 0 .337.014.503.028a3.917 3.917 0 0 1-.286-1.473c0-1.095.443-2.087 1.162-2.813C24.221 6.98 24 7.6 24 8.27c0 1.651 1.344 3 3 3a3 3 0 0 0 3-3 3.005 3.005 0 0 0-2.77-2.991zm-2.758 8.7a3.395 3.395 0 0 0 0 2.581 2 2 0 1 0 0-2.581zM24 15.27c0-.492.177-.942.472-1.29A3.683 3.683 0 0 1 26 12.232a4.36 4.36 0 0 0-2.756-.962c-2.338 0-4.244 1.797-4.244 3.998 0 2.205 1.906 4.002 4.244 4.002 1.03 0 1.994-.345 2.756-.962a3.68 3.68 0 0 1-1.527-1.747A1.992 1.992 0 0 1 24 15.27zm4.005-3.038c1.067.646 1.777 1.763 1.777 3.04 0 1.278-.71 2.4-1.782 3.036a4.348 4.348 0 0 0 2.756.962c2.338 0 4.244-1.797 4.244-4.002 0-2.206-1.906-3.998-4.244-3.998a4.355 4.355 0 0 0-2.75.962zm-2.025 7.053a3.4 3.4 0 0 1-.34-.015A5.07 5.07 0 0 1 24 20.315a5.37 5.37 0 0 1 2.011 1.955A5.403 5.403 0 0 1 28 20.33a5.12 5.12 0 0 1-1.681-1.06 4.873 4.873 0 0 1-.34.015zM0 23.725c1.011.188 2.288.38 3.627.482 1.736.132 3.188.035 4.18-.09L8 24.09c-1.712-.094-4.742-.402-6.872-1.387a6.393 6.393 0 0 1-.783-.386L.26 22.27c-.104.481-.198.966-.261 1.455zm52.865-1.015l-.105.047c-2.05.918-4.89 1.225-6.598 1.328l-.162.009c.993.134 2.521.254 4.369.112a35.293 35.293 0 0 0 3.401-.437l.23-.041c-.063-.493-.157-.98-.26-1.458a7.077 7.077 0 0 1-.875.44zM28 45.27l2-.498-2-.502zM1.996 17.046a43.032 43.032 0 0 0 2.611 1.608c2.003 1.142 4.236 1.982 6.443 2.765l1.818.641c3.415 1.213 6.578 2.455 8.696 4.722 3.623 3.887 3.94 8.827 3.963 9.358l.001.046a.18.18 0 0 1-.173.183.165.165 0 0 1-.1-.032c-.032-.023-3.372-2.305-6.713-3.053-2.931-.653-6.766.08-7.672.272l-.216.046a.176.176 0 0 1-.191-.126.177.177 0 0 1 .118-.214 6.842 6.842 0 0 0 3.95-3.089l.042-.073c-1.531.997-5.974 3.253-11.32.305a.174.174 0 0 1-.086-.187.17.17 0 0 1 .155-.137l.214-.025c.569-.07 2.2-.29 4.038-.757l.218-.056c1.182-.31 2.173-.87 2.867-1.345l.123-.086c-1.5.538-4.311 1.212-7.483.283-1.403-.41-2.47-.966-3.28-1.536-.005.237-.019.474-.019.716C0 42.182 12.09 54.27 27 54.27s27-12.088 27-26.995c0-.242-.014-.474-.018-.716a11.638 11.638 0 0 1-3.303 1.536c-3.074.9-5.802.297-7.334-.23l-.149-.053c.693.492 1.732 1.103 2.99 1.43 2.243.589 4.232.812 4.45.837l.04.006a.18.18 0 0 1 .135.133.174.174 0 0 1-.087.187c-5.185 2.855-9.516.823-11.173-.212l-.146-.093a6.844 6.844 0 0 0 3.987 3.162.177.177 0 0 1 .118.214.173.173 0 0 1-.209.123c-.046-.01-4.539-1.057-7.87-.315-3.069.683-6.141 2.67-6.642 3.005l-.07.048a.2.2 0 0 1-.1.032.187.187 0 0 1-.083-.023.175.175 0 0 1-.09-.16c0-.054.154-5.312 3.964-9.404 2.113-2.267 5.28-3.51 8.696-4.722l1.596-.563c2.276-.804 4.595-1.659 6.664-2.843a43.564 43.564 0 0 0 2.396-1.465l.215-.143C47.95 7.205 38.28.27 26.987.27 15.695.27 6.025 7.205 1.997 17.046z"/></g></g></svg>