<?xml version="1.0" encoding="UTF-8"?>
<svg width="135px" height="103px" viewBox="0 0 135 103" version="1.1" xmlns="http://www.w3.org/2000/svg" xmlns:xlink="http://www.w3.org/1999/xlink">
    <title>ww-logo</title>
    <g id="Page-1" stroke="none" stroke-width="1" fill="none" fill-rule="evenodd">
        <g id="ww-logo" fill="#FCF5E7" fill-rule="nonzero">
            <polygon id="Path" points="23.8863911 81.1304949 22.9596119 82.213425 27.4390448 93.752235 30.8372352 82.213425 29.8332245 81.1304949 36.0889841 81.1304949 34.9691259 82.1760826 39.1782482 94.1256589 43.4259863 82.1760826 42.4953455 81.1267606 46.9014084 81.1304949 45.6657027 82.213425 38.9851692 100.959323 37.9425426 102.042254 32.1115567 85.4995589 27.7479712 100.884638 26.628113 102.042254 18.866337 82.213425 17.7464788 81.1304949"></polygon>
            <path d="M54.7932251,81.1269818 C58.2257796,81.1269818 60.700412,82.2120319 62.3368624,83.1848349 C60.2214509,82.4365249 52.9572075,81.1269818 49.3649992,85.6168435 C47.928116,87.4127877 47.4092414,89.6951345 47.4092414,91.56591 C47.4092414,96.841497 51.0812765,100.358556 54.7932251,100.358556 C57.9463857,100.358556 60.8201523,98.2258713 61.6583342,94.1475803 C62.2171221,91.341417 60.979806,88.8345773 59.9420569,87.6746966 C58.8643944,86.4774 56.3897621,85.3175193 54.2344371,87.0012171 C52.9572075,88.0114361 53.0370344,89.1339015 53.3962552,89.9196275 C54.03487,91.1543394 55.5914936,91.1169235 55.5914936,91.1169235 C52.8374672,91.6407412 51.6799779,89.6203033 51.9992853,88.0862673 C52.3185927,86.5896465 54.2344371,84.1576386 54.2344371,84.1576386 L60.2214509,84.2324692 L65.011062,88.4230067 L65.2455532,89.0310087 C65.3802611,89.405164 65.5498933,89.9196275 65.6895904,90.4808599 C66.3282051,92.9128684 65.5299368,95.7564475 64.3325337,97.5523918 C62.4965161,100.246309 58.9841347,102.042254 54.7932251,102.042254 C48.4869039,102.042254 43.0985915,98.0387937 43.0985915,91.5284941 C43.0985915,85.8039211 47.7285488,81.0895665 54.7932251,81.1269818 Z" id="Path"></path>
            <path d="M76.8256707,81.1267606 C80.0943395,81.1267606 83.4825936,83.6926016 82.7650813,87.6191159 L83.8413501,87.5802397 L81.965603,89.6621793 C81.9201093,89.7150809 81.8925503,89.7486782 81.8881213,89.7573169 L82.6056336,90.3015862 L78.4600054,92.1287763 L79.7754448,92.5952932 L85.7547171,100.914839 L86.8309859,102.042254 L80.2139248,102.042254 L80.2139248,102.003377 L81.2901942,100.875962 L75.2311984,92.4397872 L72.9590749,92.4397872 L72.9590749,100.875962 L74.0353443,102.003377 L67.8169014,102.003377 L68.8931702,100.875962 L68.8931702,82.2541754 L67.8169014,81.1267606 L76.8256707,81.1267606 Z M75.0410613,82.8697183 L73.0025607,82.8697183 L73.0025607,89.8415493 L75.0768243,89.8415493 C77.1153249,89.8415493 78.18822,87.9242958 78.18822,86.1464789 C78.18822,84.7172535 77.079562,82.8697183 75.0410613,82.8697183 Z" id="Combined-Shape"></path>
            <polygon id="Path" points="120.882042 99.7447183 121.357394 100.948944 121.832746 99.7447183 122.086268 99.7447183 122.086268 101.170775 121.864437 101.170775 121.864437 100.18838 121.801056 100.378521 121.484155 101.170775 121.262324 101.170775 120.898474 100.251761 120.898474 100.251761 120.882042 100.18838 120.882042 101.170775 120.660211 101.170775 120.660211 99.7447183"></polygon>
            <path d="M112.845658,81.1267606 C118.046062,81.1267606 121.690141,85.2553306 121.690141,91.3702887 C121.690141,99.0431975 115.46484,102.042254 112.086475,102.042254 L101.647708,102.042254 L102.672605,100.912739 L102.672605,88.8775669 L101.419954,86.2290501 L102.710564,86.7743335 L100.774648,82.957353 L102.824442,83.113148 L101.154239,81.1267606 L112.845658,81.1267606 Z M112.142978,82.8697183 L106.824722,82.8697183 L106.824722,99.4433793 L106.003521,100.299296 L110.53968,100.299296 C114.645687,100.26039 118.204225,96.6421971 118.204225,91.467791 C118.204225,87.149302 116.170775,82.8697183 112.142978,82.8697183 Z" id="Combined-Shape"></path>
            <polygon id="Path" points="93.0150393 81.1267606 91.9121508 82.2562751 91.9121508 99.4326858 91.0849842 100.289559 98.726426 100.289559 100.774648 97.8747344 100.301981 102.042254 86.8309859 102.042254 87.8944855 100.912739 87.8944855 82.2562751 86.8309859 81.1267606"></polygon>
            <path d="M71.7006093,58.943662 C72.4419488,58.943662 73.1832889,59.096889 73.8856109,59.4416499 C75.5633801,60.2077852 76.6168631,61.7400557 76.6168631,63.3872465 C76.6168631,65.9442232 74.707425,67.2729889 73.7527063,67.7775606 L73.2223065,68.0223651 L74.470879,68.4437394 L74.7578453,69.3120949 C75.1796024,70.4982391 76.0681743,72.7005784 77.4362389,74.6494352 C78.6848115,76.4498529 80.6747242,78.2502706 84.1473165,78.2502706 C86.6834791,78.2502706 87.9710698,77.0627611 88.2832126,76.4498529 L87.5808906,75.7603312 L85.5519604,76.9095342 L86.5274077,75.0708095 L90,75.0708095 L89.9613634,75.2765584 C89.7591866,76.1930778 88.6197423,79.8591549 83.3279406,79.8591549 C79.3090977,79.8591549 76.3437378,78.2119642 74.3928433,75.9135581 C71.5835554,72.5808701 70.4910543,68.4437394 70.4910543,68.4437394 L68.2670345,68.4437394 L68.2670345,74.6111282 L69.2814999,75.7220242 L64.0140845,75.7220242 L65.0675675,74.6111282 L65.0675675,60.0162514 L64.053102,58.943662 L71.7006093,58.943662 Z M69.8625437,60.6866197 L67.4788735,60.6866197 L67.4788735,67.6584507 L69.8625437,67.6584507 C71.4256061,67.6584507 72.6760565,65.7411972 72.6760565,63.9546655 C72.6760565,62.8653169 72.0899081,60.6866197 69.8625437,60.6866197 Z" id="Combined-Shape"></path>
            <polygon id="Path" points="5.02218786 58.943662 6.70846994 62.4967176 5.24213769 61.8803712 7.58826925 66.3398189 6.30522856 65.8322392 8.02816897 69.8167375 10.9974918 59.9950764 10.0077175 58.9799176 15.2865136 58.9799176 14.2967393 59.9950764 17.852595 69.0952494 20.9685509 59.9950764 20.015435 58.9799176 24.084507 58.9799176 23.0947327 59.9950764 18.1458614 74.7511339 17.3393787 75.8388042 12.2805325 62.7505073 8.46806863 74.9686677 7.66158592 76.056338 3.51919731 68.3701358 5.05884616 69.0227379 1.35635726 63.330598 2.96932272 63.9831999 -6.52817068e-08 58.943662"></polygon>
            <path d="M127.369673,58.943662 C128.965056,58.943662 130.606363,59.4841044 131.575232,59.8701347 L132.44421,60.2513992 L134.296232,59.5788486 L132.999817,63.8756994 L132.653497,63.3615228 C132.38522,62.986346 131.987379,62.4766283 131.55524,62.0822314 C130.888513,61.4096808 129.258734,60.6250384 127.332632,60.6250384 C123.295226,60.6250384 121.10984,64.2119749 121.10984,67.5747279 C121.10984,71.796851 124.332358,74.4123258 127.332632,74.4123258 C128.162337,74.4123258 129.110572,74.268848 129.835972,74.0584147 L130.332907,73.8892306 L130.332907,68.8451013 L131.110755,67.9857313 L127.851198,67.9857313 L127.11039,69.8165632 L125.443571,68.2099143 L125.591732,67.7615476 L125.591732,67.7615476 C126.125114,66.584584 127.438568,66.3760933 128.830028,66.3461645 L135,66.3417184 L133.518383,67.9110034 L134.851838,68.1351864 L133.407262,69.8165632 L133.407262,74.6365088 L132.926315,74.8583575 C131.99741,75.2576844 129.823601,76.056338 127.295592,76.056338 C124.887964,76.056338 122.146973,75.7947904 120.257911,73.7397748 C118.702213,72.0583986 117.887324,69.9286551 117.887324,67.5747279 C117.887324,62.4932345 121.776569,58.943662 127.369673,58.943662 Z" id="Path"></path>
            <polygon id="Path" points="45.5583928 58.943662 45.5583928 61.2097241 46.9014084 62.0692649 43.7413717 64.0618365 44.6103818 64.569747 42.1613534 66.171619 36.5127877 74.3372563 44.0178749 74.3372563 45.9928978 72.3056146 45.5583928 76.056338 33.0367473 76.056338 33.0367473 73.6730658 42.2008538 60.6627436 35.2092725 60.6627436 32.9577464 63.0069458 33.5502533 58.943662"></polygon>
            <polygon id="Path" points="102.042254 58.943662 106.051247 58.943662 114.832853 71.5242137 114.832853 60.037623 113.840149 58.943662 117.887324 58.943662 116.85644 60.037623 116.85644 74.9233071 117.887324 76.056338 114.069235 76.056338 105.058544 63.0850859 105.058544 74.9233071 106.051247 76.056338 102.042254 76.056338 103.034957 74.9233071 103.034957 60.037623"></polygon>
            <polygon id="Path" points="31.056338 58.943662 30.0798122 60.037623 30.0798122 74.9233071 31.056338 76.056338 25.9859154 76.056338 26.9999999 74.9233071 26.9999999 60.037623 26.0234741 58.943662"></polygon>
            <polygon id="Path" points="100.774648 58.943662 99.7981219 60.037623 99.7981219 74.9233071 100.774648 76.056338 95.7042254 76.056338 96.7183099 74.9233071 96.7183099 60.037623 95.7417839 58.943662"></polygon>
            <path d="M58.7862559,58.943662 L57.8083887,60.037623 L63.0362174,74.9233071 L64.0140845,76.056338 L58.7862559,76.056338 L59.8017334,74.9233071 L58.8238662,72.1102646 L59.5760718,71.3679338 L51.6403033,71.3679338 L50.1358922,74.9233071 L51.1137594,76.056338 L46.9014084,76.056338 L47.9168859,74.9233071 L49.6093484,70.977233 L48.2929886,69.648852 L50.1735025,69.648852 L54.2730227,60.037623 L53.2951555,58.943662 L58.7862559,58.943662 Z M54.8449276,62.3661972 L52.0352112,69.2112676 L57.169014,69.2112676 L54.8449276,62.3661972 Z" id="Combined-Shape"></path>
            <path d="M87.2832125,58.943662 C92.2953942,58.943662 93.8028169,62.4662713 93.8028169,65.7320235 C93.8028169,69.5848779 91.3909399,72.8873239 87.6600685,72.8873239 L80.0098973,72.8873239 L80.8766651,71.859896 L80.8766651,59.9710897 L79.8591549,58.943662 L87.2832125,58.943662 Z M86.4913323,60.6866197 L84.0958827,60.6866197 L84.0958827,70.3564536 L83.3450704,71.1443662 L86.2410619,71.1443662 C89.2443118,71.1443662 90.3169014,68.2076015 90.3169014,65.7006078 C90.3169014,63.8740838 89.709101,60.6866197 86.4913323,60.6866197 Z" id="Combined-Shape"></path>
            <path d="M68.7676056,46.9014085 L69.3251075,46.9276339 C71.8978183,47.1704616 74.0392428,49.0722889 74.6656352,51.4908537 L74.7762775,52.0166105 L119.725767,52.0166105 L121.690141,53.3806644 L121.690141,53.8732394 L72.9274557,53.8732394 L72.9130817,53.2864356 C72.905895,53.1167573 72.8951146,52.9241018 72.8789444,52.7279114 L72.8504214,52.4334048 L72.7706358,52.0028849 C72.331226,50.1733206 70.6962131,48.8338181 68.7290882,48.8338181 C66.7619639,48.8338181 65.126951,50.2059914 64.7492191,52.0098858 L64.6847899,52.4334048 L64.6562668,52.7279114 L64.6095524,53.7070961 L64.6095524,53.7070961 L64.6077556,53.8732394 L15.8450704,53.8732394 L15.8450704,53.3806644 L17.809444,52.0166105 L62.7589335,52.0166105 C63.1922514,49.3169205 65.4197749,47.1833662 68.2037563,46.9272176 L68.7676056,46.9014085 Z" id="Path"></path>
            <path d="M117.782315,36.1677601 C117.988102,36.1204179 118.211037,36.1204179 118.428256,36.1361986 L118.746939,36.1677601 L118.862694,36.1677601 C119.055618,36.2032668 119.248544,36.4163068 119.248544,36.5938402 C119.248544,36.9134002 119.364298,37.0909335 119.557223,37.2329602 C119.711562,37.3039735 119.788732,37.4815069 119.788732,37.6235335 C119.788732,37.8223709 119.541789,37.9757597 119.304723,38.0655205 L119.132788,38.1206269 L116.505309,38.6523748 C115.786703,38.8023549 115.004201,38.972787 114.541181,39.079307 L113.67302,39.3145386 L113.67302,39.3145386 L111.415802,40.0024803 L111.415802,40.0024803 C110.721272,40.1800137 110.103914,40.2865337 109.525139,40.357547 L108.309714,40.477382 L108.309714,40.477382 L106.24542,40.6416004 C105.975326,40.677107 105.820986,40.7126137 105.705231,40.890147 C105.628061,41.0085026 105.499444,41.079516 105.365112,41.1347485 L105.087872,41.2452138 L103.312965,41.8843337 L103.312965,41.8843337 C103.12004,41.9553471 102.927116,41.9908537 102.734191,42.0263605 C102.618436,42.0263605 102.502681,42.0618671 102.386927,42.0973737 L102.09754,42.1550721 L102.09754,42.1550721 L101.808153,42.2394005 C101.460888,42.3459205 101.113624,42.4524405 100.76636,42.5234538 L99.8210282,42.7143021 L99.8210282,42.7143021 L98.2583385,42.9850405 C97.7567343,43.0915605 97.2937154,43.1980805 96.8306958,43.3401072 L95.8817922,43.5794484 L95.8817922,43.5794484 L95.3644684,43.6951739 L95.2872985,43.6951739 L95.0750816,43.7439955 L95.0750816,43.7439955 L94.8628642,43.7661872 C94.6056315,43.7898583 94.3483988,43.8450909 94.0911655,43.910844 L93.7053165,44.0147339 C93.4738067,44.0857472 93.2422969,44.1567605 93.0107877,44.1922672 C92.6763845,44.2632805 92.3591307,44.3658554 92.0361606,44.4894712 L91.5445597,44.6893606 C91.3130506,44.7958806 91.0815408,44.9024006 90.850031,44.9734139 L90.7342764,44.9956056 L90.7342764,44.9956056 L90.6185212,45.0444272 C90.464182,45.1154406 90.3098421,45.186454 90.1555023,45.2219606 C89.6924833,45.3817406 89.2728716,45.4416581 88.8641125,45.5814656 L88.4577651,45.7545606 C87.9175762,46.0386139 87.2230475,46.1096273 86.5671034,46.251654 C86.1426691,46.358174 85.7568194,46.571214 85.2552152,46.677734 L84.290592,46.890774 L83.2487989,47.103814 C82.8629493,47.1748274 82.3613451,47.4588807 81.9754961,47.529894 L80.2320287,47.9007415 C79.9519304,47.9599192 79.6732618,48.0151519 79.3903056,48.0624941 L78.8840708,48.1306669 C78.6340407,48.1562317 78.4256818,48.1690141 78.4256818,48.1690141 C78.0784175,48.1690141 78.0012475,48.0980007 77.9626629,47.9914807 C77.9317948,47.8210487 78.0490933,47.7415138 78.2355353,47.6801583 L78.6529711,47.5665103 C78.6861304,47.5587432 78.7343615,47.5476474 78.8115315,47.529894 L80.3935135,47.103814 L80.6443156,47.0017323 L80.6443156,47.0017323 L81.3910056,46.784254 L81.3910056,46.784254 L82.4771003,46.5002007 L83.3259689,46.251654 L84.5606865,45.8610806 C85.0751525,45.719054 85.6067673,45.5612465 86.1212332,45.3981789 L86.8757825,45.1509472 C87.2616321,45.0089206 87.6474818,44.9024006 88.0719161,44.7958806 L89.0922727,44.5013067 L89.0922727,44.5013067 L89.5767281,44.3342939 L92.702108,43.0915605 L93.9482582,42.6496998 C94.1597613,42.5786864 94.3741217,42.5116183 94.5927697,42.4524405 L96.4377013,41.9303609 C96.5991866,41.888279 96.7663876,41.8488271 96.946451,41.8133204 L97.3323,41.7378687 L97.3323,41.7378687 L98.8371127,41.3517338 L101.808153,40.570587 C102.194002,40.464067 102.502681,40.357547 102.811361,40.251027 L103.182741,40.1090003 L103.182741,40.1090003 L103.58306,39.9669737 L104.431928,39.6474136 C104.586268,39.5764003 104.740608,39.5408936 104.894947,39.505387 C104.972117,39.505387 105.087872,39.4698803 105.203627,39.4343736 L105.261504,39.4299353 L105.261504,39.4299353 L105.319382,39.398867 L105.242212,39.292347 L105.010702,39.079307 L105.203627,38.7952536 L105.454429,38.852952 L105.454429,38.852952 L105.550891,38.9017736 C105.628061,38.9491158 105.705231,38.9806773 105.770968,38.996458 L105.859571,39.0082936 L106.29258,39.0056635 C106.532663,39.0004033 106.772747,38.9846225 106.978534,38.9372802 L108.483346,38.5245153 L108.483346,38.5245153 L109.988159,38.0851203 L110.952782,37.9430935 C111.261462,37.8365735 111.531556,37.7655602 111.801651,37.6945469 L112.901321,37.3705485 L112.901321,37.3705485 L114.000992,37.0199202 C114.386841,36.8778935 114.78984,36.783209 115.187122,36.7043053 L117.458819,36.2461589 C117.592478,36.2160492 117.705146,36.1890641 117.782315,36.1677601 Z" id="Path"></path>
            <path d="M20.7393087,35.0352381 C21.1268976,33.8513484 22.2896643,34.1103243 22.9098066,34.8872519 L23.2004982,35.1785997 L23.2004982,35.1785997 L23.4911899,35.4422002 C23.7625021,35.6641795 23.9950555,35.9231553 24.2276088,36.2191278 C25.1633592,37.4215157 29.9089502,38.1135022 31.8544516,38.1766013 L33.1956024,38.1663544 C33.7628608,38.1693746 34.1927116,38.1965557 34.412835,38.2478979 L34.5374736,38.2909347 L34.6149914,38.3279312 L34.6149914,38.4389209 C34.6149914,38.512914 34.5805391,38.5704641 34.5231185,38.6225334 L34.4211969,38.6978967 C34.3436792,38.7718898 34.1498847,38.919876 34.1498847,38.9938691 L34.1908141,39.0447764 C34.242906,39.0944998 34.3591827,39.1788519 34.6149914,39.2898416 L36.5486294,39.9270044 C38.7535796,40.6258282 42.767278,41.867268 48.4519152,43.6184381 C49.0332985,43.6924313 49.5371641,43.8034209 49.9635119,43.9514071 C50.5061364,44.0993933 51.0487609,44.3213727 51.6301442,44.5803485 L60.544689,47.3920865 L60.544689,47.3920865 C60.6609656,47.429083 60.7772423,47.5030761 60.8160012,47.6140658 C60.8547601,47.7250554 60.8547601,47.8360451 60.8160012,47.9470348 C60.7643227,48.0210278 60.6781918,48.095021 60.5805768,48.1361283 L60.4284123,48.1690141 L60.3121356,48.1690141 L44.1109195,43.6554347 C43.7491699,43.5814416 43.3529679,43.4745627 42.9337977,43.3457599 L42.2892517,43.137483 L35.0800981,41.1766658 L34.9068943,41.1564333 C34.6373989,41.1347555 34.1029501,41.1311426 33.6631276,41.3714035 L33.4134658,41.5466312 L33.2971891,41.6576209 L33.1249274,41.6713233 C33.0151106,41.6733787 32.8471554,41.6507697 32.650131,41.5248787 L32.4444935,41.3616485 C32.1912688,41.1199377 29.5408498,39.7502431 26.7621302,39.7491689 L26.1655533,39.7707967 C26.1267945,39.7707967 25.1190633,39.7707967 24.3438855,39.0678623 C24.1113322,38.845883 23.8133732,38.6655247 23.5154142,38.5423956 L22.8928496,38.3452734 C22.8492458,38.3348681 22.8129093,38.3279312 22.7935299,38.3279312 C22.7160121,38.3279312 22.4446999,38.8828795 22.4446999,38.9568726 C22.4446999,39.0308657 22.9098066,39.4008312 22.9873243,39.4748243 C23.4136721,39.8447899 23.801261,39.6598071 23.801261,39.7707967 C23.801261,39.8817864 23.6074666,40.1037657 23.5299488,40.1777588 C23.3555338,40.2887485 23.1593169,40.2956854 22.974001,40.276609 L22.7935299,40.2517519 L22.6772532,40.2517519 L22.4619261,40.1942017 L22.4619261,40.1942017 L21.9795932,40.0297726 C21.8245576,39.9557795 21.6695221,39.918783 21.5532454,39.8817864 C21.4240491,39.857122 21.2604005,39.8160148 21.1082359,39.7475026 L20.414703,39.3407118 C20.2257534,39.2250976 20.0416487,39.1048588 19.9641309,39.0308657 L19.7703364,38.7718898 L19.7703364,38.7718898 C19.5377831,38.512914 19.6153009,38.1059519 19.4990242,37.8839726 C19.3439886,37.5510036 18.9176409,37.2920278 19.0339175,36.8850657 C19.2664709,35.9601519 20.4679965,35.9231553 20.7393087,35.0352381 Z" id="Path"></path>
            <path d="M108.84757,20.9755305 C109.533101,20.7845303 110.370972,21.0519305 110.713738,21.7395309 C111.399269,23.1911318 110.218632,24.0315323 108.961826,24.4517326 C108.487878,24.6894216 106.388968,26.013689 105.660911,26.4391817 L104.590375,27.0147153 C104.508254,27.0588841 104.439225,27.0970841 104.391619,27.1257342 C104.353533,27.2021342 104.239278,27.3167343 104.163109,27.3931343 L103.982204,27.4743094 C103.906034,27.4981844 103.820343,27.5077344 103.744173,27.4695344 L76.6276137,46.8369459 L76.6276137,46.8369459 C76.5133587,46.922896 76.3348348,46.922896 76.2045129,46.8369459 L76.0944232,46.7223458 L76.0587186,46.5964052 C76.0444365,46.4621082 76.0944232,46.3116956 76.2086782,46.2257456 L102.906302,26.3999337 L102.906302,26.3999337 L103.005041,26.1622447 C103.02902,26.1198002 103.058642,26.0816002 103.096727,26.0561335 C103.172897,25.9797334 103.282921,25.937289 103.370375,25.9174816 L103.477577,25.9033334 L106.790977,23.1529318 C106.867147,23.1019984 106.926391,23.0340873 106.946139,22.9491983 L106.943318,22.8091316 L106.981402,22.6945315 C107.019487,22.6563315 107.057573,22.6181315 107.095658,22.6181315 L107.41462,22.6420065 C107.543157,22.6467815 107.685976,22.6372315 107.819274,22.5799315 L107.826169,22.3708531 C107.856889,21.9956126 108.018162,21.2429306 108.84757,20.9755305 Z" id="Path"></path>
            <path d="M28.2394152,21.5516053 C28.6543165,21.0081538 29.710429,20.5811562 30.3893585,21.2798796 C31.1437246,22.0562388 31.3323162,22.4832365 31.5963443,22.6773263 C31.8603724,22.8714161 32.4638653,23.104324 33.1805131,23.6865934 C33.8971609,24.2688629 35.519048,25.9768533 35.7076396,26.1321252 L36.1554313,26.4190676 C36.4288136,26.5979408 36.7184901,26.8075578 36.763752,26.9473025 L37.1051962,27.0909176 C37.3664752,27.2158594 37.7174864,27.4186635 37.9330196,27.6848438 C38.3102026,28.1506594 39.102287,28.4223852 39.5549066,28.8493827 L40.1167585,29.3667486 C40.3104797,29.5425164 40.5259267,29.7232528 40.8089649,29.9139266 L41.2899487,30.2080115 C42.0141401,30.6117184 42.448655,31.0402687 43.1149111,31.553287 L43.6662019,31.95482 C44.4809173,32.5137987 44.9335369,32.9982469 45.4682316,33.4081646 L46.6613147,34.2249521 L46.6613147,34.2249521 L48.5584169,35.5757598 L48.5584169,35.5757598 L56.0378059,41.1546777 L56.0378059,41.1546777 L57.4850713,42.3039877 C58.2650485,42.9163424 59.126516,43.5872702 59.5456083,43.9107533 L61.5807023,45.4232892 C61.9884579,45.7303454 62.3226185,45.9923666 62.4499178,46.1233773 C62.7516642,46.4028666 62.7637341,46.5581385 62.7371804,46.668692 L62.7139459,46.7444647 C62.7139459,46.8221006 62.4499178,47.0550084 61.9972981,46.7444647 L57.3417816,43.4402976 L57.3417816,43.4402976 L54.9970601,41.8260847 C54.1425775,41.2486076 53.3657046,40.7270411 52.9122054,40.3745378 L52.6808768,40.1842286 C52.1151022,39.679595 51.3607361,39.1361435 50.7195249,38.7091459 C50.1375854,38.343148 49.0845519,37.5493602 48.5580351,37.1344719 L48.3432717,36.9623375 C47.9660887,36.6129758 46.9099761,35.9530704 46.4196381,35.6425267 C45.9293002,35.3319829 45.1749341,34.6720775 44.5714412,34.2838979 L43.8086262,33.7932388 C43.5527452,33.6255452 43.3065201,33.4578516 43.1037465,33.3025797 L42.8363992,33.080541 C42.4592161,32.7311793 41.8934415,32.3818176 41.5162585,32.0712739 L40.8184699,31.5035611 C40.5638713,31.3046191 40.3092728,31.1202337 40.1206812,31.0231888 C39.8943714,30.9067349 39.6273258,30.7343832 39.3032501,30.4893641 L38.5742307,29.8974678 C37.9770242,29.379895 37.1702716,28.9431929 36.7214936,28.6098256 L36.4997239,28.4223852 C36.1602592,28.0730235 35.2173016,27.6072079 35.0664284,27.490754 C34.9155551,27.3743001 34.651527,27.1025743 34.651527,27.1025743 L34.4692721,27.0740043 C34.313571,27.0404656 34.1008397,26.9705933 34.0103158,26.8308485 C33.8594426,26.5979408 33.5576962,26.403851 33.2559497,26.326215 C32.9919216,26.2485791 32.3507104,25.8215815 32.0489639,25.5886737 C31.7472175,25.3557659 30.9928514,25.0452222 30.691105,24.7734964 C30.3893585,24.4629527 30.0498938,24.3464988 29.5972741,24.2300449 C29.1823728,24.152409 28.3525701,23.9583192 28.0508236,23.2984138 C27.8245138,22.5996904 27.7867955,22.0950569 28.2394152,21.5516053 Z" id="Path"></path>
            <path d="M97.8655855,10.2462367 C97.9773661,10.16189 98.0891468,10.1197167 98.200928,10.1513467 L98.3127087,10.2087492 L100.622846,11.8956815 C100.697367,11.9456646 100.755328,12.045631 100.774648,12.1622584 L100.771888,12.34553 L100.673907,12.4815954 L100.534526,12.5843385 L100.534526,12.5843385 L100.362025,12.6454291 L100.063943,12.6829165 C99.8900607,12.707908 99.7327394,12.7828829 99.603019,12.885626 L99.4305175,13.0577903 L93.5433919,20.9676279 L93.5061313,21.0051152 L93.0962681,21.3050143 L93.0450353,21.3659313 L93.0450353,21.3659313 L93.0217475,21.4549638 L92.9472268,22.0922493 C92.9472268,22.2796862 92.8354462,22.4296357 92.6491449,22.5046105 L92.5001037,22.537412 L92.5001037,22.537412 L92.3510624,22.5420979 L92.2392818,22.5046105 L83.814776,33.8421442 C81.8877239,36.4269838 79.9380767,39.0296382 78.2960711,41.1928268 L75.6584525,44.6221657 C75.6584525,44.6221657 75.2858499,45.1469891 74.9505074,44.9595522 C74.6710549,44.8033548 74.8056061,44.4909599 74.9660324,44.2393085 L90.7293137,22.2218189 L90.7293137,22.2218189 L91.1214729,21.6798881 L91.0469523,21.567426 L90.9957194,21.4502779 L90.9724316,21.3050143 C90.9724316,21.1644366 91.0562673,21.0449456 91.1610621,20.9623562 L91.2705142,20.8926531 L91.8294186,20.6302414 C91.8790986,20.6302414 91.9122192,20.5969193 91.9287792,20.5635972 L92.1088705,19.9788981 L92.1088705,19.9788981 L97.604763,11.7457319 C97.7041242,11.5957824 97.7538042,11.4458329 97.7648444,11.284776 L97.7538042,11.0334717 L97.7165442,10.7335726 C97.6792836,10.5461357 97.7165442,10.3586988 97.8655855,10.2462367 Z" id="Path"></path>
            <path d="M39.4328664,10.1408451 C39.5093243,10.1408451 39.5687915,10.1746356 39.6225953,10.2196896 L39.7004691,10.2929025 L40.7326509,11.8134762 L41.1531694,12.1556054 L41.2630776,12.2934074 L41.2630776,12.2934074 L41.3443141,12.4597202 L41.4207721,12.7258206 L43.4851357,15.5768965 L43.5998225,15.5768965 C43.8005245,15.5768965 43.9367152,15.6410457 44.0406501,15.7372695 L44.1350279,15.8429969 L44.5173174,16.4892408 C44.5682893,16.5906124 44.5512987,16.7088792 44.5116539,16.8102508 L44.4408595,16.945413 L44.9760649,17.6676855 L45.3965834,17.8197429 C45.4539268,17.8482537 45.640293,18.1333612 45.74602,18.3062077 L45.8171019,18.4279724 L45.8171019,18.8081159 L46.5052231,19.7584745 L46.6963679,19.7584745 C46.7728258,19.7584745 46.832293,19.7922651 46.8860967,19.8373191 L46.9639706,19.9105319 C47.0149425,19.9612177 47.082905,20.045694 47.133877,20.1189068 L47.1933442,20.2146467 L47.2315732,20.4047184 L47.1551153,20.6328045 L47.4991759,21.0889766 L47.7667786,21.0509623 L47.8771838,21.1260786 C48.0019631,21.2465081 48.1570197,21.4818929 48.2267494,21.6433778 L48.263755,21.7732349 L48.1872971,22.0773496 L49.4488526,23.8260095 L49.7929132,24.3582104 L49.7929132,24.3582104 C49.984058,24.5862964 50.0987448,24.8143825 50.1752028,25.0804829 L50.1799814,25.1184973 L50.1799814,25.1184973 L50.2134317,25.1565116 C50.3153756,25.2578832 50.4513008,25.4268358 50.5532446,25.5845249 L50.6721791,25.8027555 L50.6721791,25.8407698 L50.9351944,26.1631315 C51.1003434,26.3820941 51.3067798,26.6694825 51.5132161,26.9431859 C51.9719636,27.399358 52.3542532,27.9695732 52.6983138,28.4637597 C52.8130006,28.6538314 52.9276875,28.8439031 53.0041454,29.0339748 L63.8611688,44.0876557 L63.8611688,44.0876557 C64.2052293,44.5438278 63.8611688,44.8479426 63.8611688,44.8859569 L63.7309071,44.9704333 C63.6912621,44.9873286 63.6445382,45 63.5935658,45 C63.4406501,45 63.2877344,44.9239713 63.1348187,44.7338996 L54.1127851,32.8734238 L54.1127851,32.8734238 C53.7687245,32.6073233 53.4628929,32.2271798 53.2335191,31.694979 L49.4106237,26.6770854 L49.3341657,26.6390711 C49.1621354,26.525028 49.0976241,26.3896019 49.0438646,26.2327927 L48.9901051,26.0688559 L48.4931287,25.422612 C48.301984,25.308569 48.1490681,25.1565116 48.0343812,25.0044542 L47.8910227,24.7953753 L47.8910227,24.7953753 L47.7715572,24.5102677 L47.7715572,24.5102677 L47.7667786,24.434239 L47.1933442,23.6739521 L46.8875126,23.6359378 C46.8014975,23.5789163 46.6079634,23.3935963 46.5004444,23.240351 L46.4287651,23.1037369 L46.3905362,22.6855791 L45.8171019,21.8872778 L45.5877281,21.8872778 L45.5076863,21.8106552 C45.4431749,21.7334386 45.3643277,21.6158317 45.3189308,21.5291114 L45.2818965,21.4311057 L45.3201255,21.241034 L44.9378359,20.7468475 L44.7849201,20.7088332 C44.7084622,20.7088332 44.6489949,20.6750426 44.5951912,20.6299886 L44.5173174,20.5567758 C44.4026306,20.4427327 44.2879437,20.2906754 44.2114858,20.1766323 L44.158921,20.0388303 L44.158921,20.0388303 L44.1350279,19.8725176 L44.1350279,19.6824458 L43.5615936,18.8841445 L43.217533,18.5040011 L43.0263882,18.161872 L42.1471222,16.9834273 L41.6883748,16.7553412 C41.6501458,16.7553412 41.6119169,16.7173268 41.5736879,16.6793125 L41.4398865,16.4654818 L41.4398865,16.4654818 L41.3060852,16.2231404 L41.3060852,15.7669682 L39.4710953,13.2960357 L39.0505769,13.105964 C38.948633,13.0806211 38.8806704,13.0214877 38.835362,12.9398273 L38.7829742,12.8018493 L38.7065163,12.3456771 L38.094853,11.4713471 C38.0088378,11.3573041 38.0088378,11.1791119 38.0787251,11.0490315 L38.1713109,10.9391463 L39.1270348,10.2168738 C39.2417217,10.1408451 39.3181795,10.1408451 39.4328664,10.1408451 Z" id="Path"></path>
            <path d="M83.6719333,3.8028169 L83.8826411,3.83370645 C84.2895558,3.94954225 85.1403765,4.79900476 84.8814313,5.91875082 C84.7889506,6.28556418 84.659478,6.68133646 84.5068849,7.11089423 L83.7976963,9.04917752 L83.7976963,9.04917752 L82.3104716,13.0523054 L82.3104716,13.0523054 L81.3671702,15.4945102 C81.1082244,16.1895249 80.8862711,16.69148 80.7383022,17.0389874 L80.5533414,17.4637187 L80.5533414,17.4637187 L79.2594761,21.5416116 L79.2594761,21.5416116 L79.0164298,22.2292758 L79.0164298,22.2292758 L78.6420767,23.1368127 C78.6338556,23.1654141 78.6297454,23.1911554 78.6297454,23.2168966 L78.5091784,23.7145616 L78.5091784,23.7145616 L78.4447846,23.9119114 C78.4077921,24.0277473 78.3708002,24.182195 78.3338077,24.3366427 L78.2551996,24.5924468 L78.2551996,24.5924468 L78.1488469,24.8772098 L78.000878,25.3405529 C77.8482849,25.9486909 77.6280657,26.6925739 77.3909398,27.4500314 L76.1142746,31.3254025 C75.9293132,31.8659696 75.8923213,32.0976412 75.8553287,32.2520889 L75.7813443,32.5223724 L75.7813443,32.5223724 L74.5003179,36.1032717 C73.98882,37.5595613 73.4468768,39.1429683 73.1091765,40.2112848 L72.6924942,41.6203091 L72.6924942,41.6203091 L72.1792268,43.5122938 C72.0913703,43.8260157 72.008138,44.1059522 71.9341536,44.3376238 C71.8231766,44.6851313 71.7122003,44.8781909 71.5272389,44.9554148 C71.4285932,45.0068974 71.3463883,45.0068974 71.2915846,44.9897365 L71.1573167,44.9168029 C70.9501601,44.7623551 70.9560792,44.5337725 71.0424932,44.1915163 L72.4576589,39.2310724 L72.4576589,39.2310724 L76.4472042,26.5375229 L76.4472042,26.5375229 L77.5337641,23.0616077 L77.5337641,23.0616077 L79.6822897,16.3246667 C79.7926887,15.974746 79.8874815,15.6682638 79.9614659,15.4172863 L80.1614979,14.8238066 L80.1614979,14.8238066 L80.8670903,12.4398772 C81.1493271,11.5217713 81.5028085,10.4492176 82.070022,8.77603386 C82.1255108,8.62158613 82.180999,8.40922048 82.2411114,8.15341639 L82.7394338,5.95489158 C82.8495222,5.51069991 82.9690815,5.07639289 83.0957425,4.69892263 L83.2907656,4.18121384 L83.2907656,4.14260191 C83.3499532,3.98815418 83.432816,3.80899481 83.6719333,3.8028169 Z" id="Path"></path>
            <path d="M55.859365,1.90140845 L56.1512039,1.97830328 L56.4430428,2.13209293 L56.7713615,2.24743518 C56.8686411,2.27306678 56.9497075,2.34996161 56.9929428,2.44394418 L57.0267205,2.5934619 L57.0267205,3.20862053 L57.0404005,3.38163389 L57.0404005,3.38163389 L57.0267205,3.55464726 L57.0267205,3.98922633 L56.9894962,4.25757359 L56.9894962,4.25757359 L56.8808011,4.74651709 L57.5739184,6.74578261 L57.8657573,7.89920506 L58.0481566,8.39902145 L58.0846364,8.39902145 L58.3764753,8.6297059 L58.463115,8.7114067 L58.463115,8.7114067 L58.5223947,8.82194299 L58.5953544,9.09107487 C58.6196743,9.16796973 58.627781,9.22777682 58.6196743,9.28188799 L58.4859149,9.66778612 L59.1744722,11.4507849 L59.1744722,11.4507849 L59.1790322,11.513262 L59.1790322,11.7054991 L59.215512,11.8592887 L59.5235642,12.1298446 L59.5235642,12.1298446 L59.5803106,12.2437628 L60.0180689,13.743212 C60.0545488,13.8585542 60.0180689,13.9738965 59.9815891,14.0507913 L59.8721495,14.1421039 L59.8721495,14.1421039 L59.76271,14.204581 L61.4407835,20.0485879 C61.5867029,20.3561672 61.6961424,20.7021939 61.8420619,21.1635629 C62.2251004,22.3746564 62.5465792,23.4992433 62.8218881,24.5859835 L63.0823773,25.6619104 L63.3377364,26.5077534 L63.9943739,28.1994397 L63.9943739,28.1994397 C64.0916531,28.5326506 64.140293,28.8658616 64.1727196,29.1876806 L64.2132526,29.6604414 L64.2862122,29.8526785 L64.2497324,30.0449156 L64.4105142,30.5532758 L64.4105142,30.5532758 L64.6510113,31.5443647 L67.7882789,42.5403252 C67.8429989,42.6845029 67.8156389,42.8286807 67.7369789,42.9404185 L67.6423597,43.0401415 L67.5693995,43.0785889 C67.3942963,43.1401048 67.1958463,43.0539826 67.0861147,42.8989626 L67.022202,42.7710096 L63.3377364,31.1214431 C62.7358184,29.6508296 62.2365003,28.115336 61.7628322,26.5798424 L60.7476661,23.2781707 L59.0695926,17.6264008 L58.2305558,15.0119767 L58.0937564,14.8966344 L58.0937564,14.8966344 L57.8292774,14.5506077 L57.5374385,14.2430284 C57.4887987,14.2173968 57.4563722,14.1575897 57.4401589,14.0977826 L57.3185594,12.7820266 L57.3185594,12.7820266 C57.3185594,12.7051318 57.2861329,12.5427983 57.2537063,12.4203362 L57.0267205,11.7054991 L56.8645878,11.0675568 C56.8402679,10.9707263 56.8200013,10.8852875 56.8078414,10.8212085 C56.8078414,10.6674188 56.6984018,10.3598395 56.661922,10.2060499 C56.5524823,9.70623349 56.5524823,9.51399646 56.5889622,9.43710161 L56.5416735,9.20072123 C56.4795226,8.96718879 56.3579231,8.59125847 56.1876837,8.12988951 C56.0417643,7.97609985 55.859365,7.7454154 55.859365,7.51473089 L55.8821649,7.4041946 L55.8821649,7.4041946 L55.9323247,7.32249387 L55.8958449,7.28404644 L55.8228852,7.24559901 L55.7499255,6.97646713 L55.2939272,6.14504178 L55.2939272,6.14504178 L55.0830736,5.41181114 L55.0830736,5.41181114 L54.9946572,5.21500595 L54.9946572,5.21500595 L54.9108887,4.86185934 L54.8744088,4.74651709 L54.5825699,4.59272744 C54.4731304,4.55428002 54.2177714,4.40049037 54.1083318,4.36204295 C53.9259325,4.28514812 53.8529728,4.01601623 53.8894526,3.78533174 L53.8732394,3.34389847 C53.8732394,3.25988375 53.8772927,3.18298892 53.8894526,3.1317257 C53.9168126,2.95871234 54.067292,2.80732565 54.1716015,2.72622563 L54.2542512,2.67035673 L54.2907311,2.67035673 L54.6555297,2.55501449 L54.8149602,2.33856979 C54.8298223,2.31578613 54.837929,2.2986984 54.837929,2.28588259 C54.837929,2.17054035 54.9405286,2.07682478 55.1303378,2.03717588 L55.348647,2.0167507 L55.6769658,1.90140845 L55.859365,1.90140845 Z" id="Path"></path>
            <path d="M69.2911027,0 L69.3861731,0 C69.6396942,0 69.8932154,0.0378722246 70.1467365,0.113616674 C70.3791304,0.189361123 70.4565957,0.500754969 70.4824168,0.722377616 L70.495328,0.984677837 L69.9882858,2.0072279 C70.2101168,2.12084457 70.5270182,2.42382237 70.5903985,2.95403352 C70.6432151,3.4905567 70.4099402,3.86927894 70.2390194,4.06828346 L70.1467365,4.1659447 L70.2418069,6.43827815 C70.5903985,6.58976704 70.8122294,7.00636151 70.7488492,7.46082824 L70.6291872,8.47883364 C70.6246238,8.52731011 70.6220886,8.56669722 70.6220886,8.59699496 C70.598321,8.82422835 70.4497735,8.9875523 70.3101385,9.08696687 L70.1784266,9.16507832 L70.1467365,11.0208173 L70.1373467,12.1654001 L70.1373467,12.1654001 L70.1150463,12.7629397 L70.4319477,13.1416619 C70.5270182,13.2552786 70.5903985,13.4067675 70.5903985,13.5582564 C70.6157506,14.1036164 70.4788492,14.6247382 70.2283703,15.1216218 L70.0199759,15.4897398 L69.9882858,20.4131291 C70.3368773,20.9812124 70.495328,21.5114235 70.4002576,21.9658902 C70.3527224,22.249932 70.2338844,22.4487611 70.1239589,22.5783551 L70.0199759,22.6854625 L70.0833562,26.9271517 C70.1044827,27.0786405 70.1115249,27.2301294 70.1044827,27.3928397 L70.0833562,27.6467239 L70.0833562,27.9497017 C70.4636379,28.5177851 70.4636379,29.0479963 70.4002576,29.5024629 C70.3368773,29.9569297 70.2418069,30.2599074 70.0833562,30.4113963 L70.0199759,31.2824575 L70.0199759,33.2518132 L70.0657504,35.2450143 L70.0657504,35.2450143 L70.0516661,35.5620189 L70.0516661,36.2058467 C70.4636379,37.4935023 70.1150463,38.288819 69.9565956,38.5539246 L69.9590713,39.3208372 C69.9427312,40.3007809 69.8773703,41.7919998 69.8298351,42.6441248 C69.7981449,42.9471027 69.6396942,43.0985915 69.4495534,43.0985915 C69.2831801,43.0985915 69.2059354,42.9281665 69.1777109,42.8109993 L69.1643421,42.7198693 C69.1643421,42.6819971 69.1009618,39.462858 69.0692717,38.5917968 C68.9028985,38.3266913 68.6394742,37.7136346 68.8522063,36.7018841 L68.9742013,36.2437189 L69.0375815,31.547563 L69.0058914,31.358202 C68.9425111,31.0173519 68.910821,30.6765019 68.8791308,30.3356519 C68.7206801,30.184163 68.6256097,29.843313 68.5939196,29.3888462 C68.5675109,29.1048046 68.5631098,28.7418624 68.7824461,28.3000198 L68.9425111,28.0254462 L68.9425111,25.6016238 C68.8712083,24.9483279 68.8533826,24.2737289 68.889034,23.5778268 L68.9425111,22.8748236 L68.9425111,22.7612069 C68.8474407,22.6854625 68.6572999,22.4961014 68.5622294,22.1552514 C68.4861731,21.791678 68.5520886,21.3796282 68.7599759,20.919102 L68.9425111,20.5646179 L68.8791308,18.8982401 C68.8368771,18.2922844 68.7946234,17.6863289 68.780539,17.0915947 L68.7840604,16.2093121 L68.7523703,15.5654843 L68.7206801,15.4897398 C68.4830041,15.1488898 68.3166308,14.7654335 68.2349292,14.3553483 L68.1819477,13.9369786 L68.1819477,13.5961286 C68.1819477,13.495136 68.2101165,13.3941434 68.2570648,13.3043722 L68.3403985,13.1795341 L68.6572999,12.8008119 L68.5939196,9.20295057 C68.4750815,9.14614225 68.3205921,9.02542449 68.2374055,8.84079742 L68.1819477,8.63486721 C68.1502576,8.52125051 68.1185675,8.10465604 68.0551872,7.49870049 C68.0023699,7.11997821 68.1256096,6.76755615 68.3882271,6.57293495 L68.5622294,6.47615041 L68.6572999,4.20381693 C68.4988492,4.05232803 68.1502576,3.63573356 68.2136379,2.99190574 C68.2643421,2.53743905 68.4772999,2.27687814 68.6902576,2.11327013 L68.8474407,2.0072279 L68.3403985,0.984677837 L68.3420121,0.866677804 C68.3484674,0.710279544 68.3807444,0.382754936 68.5421296,0.209524575 L68.68899,0.113616674 L68.8157506,0.0757444494 L68.8474407,0.0757444494 L69.0692717,0.0236701403 L69.0692717,0.0236701403 L69.2911027,0 Z" id="Path"></path>
        </g>
    </g>
</svg>